SplineFontDB: 3.0
FontName: BenchTwelve-Regular
FullName: BenchTwelve Regular
FamilyName: BenchTwelve
Weight: UltraLight
Copyright: (c) 2012 Vernon Adams
Version: 1.000;PS (version unavailable);hotconv 1.0.57;makeotf.lib2.0.21895 DEVELOPMENT
ItalicAngle: 0
UnderlinePosition: -50
UnderlineWidth: 50
Ascent: 1536
Descent: 512
UFOAscent: 1536
UFODescent: -512
LayerCount: 2
Layer: 0 0 "Back"  1
Layer: 1 0 "Fore"  0
FSType: 8
OS2Version: 0
OS2_WeightWidthSlopeOnly: 0
OS2_UseTypoMetrics: 0
CreationTime: 1343157768
ModificationTime: 1343157860
PfmFamily: 0
TTFWeight: 200
TTFWidth: 5
LineGap: 9
VLineGap: 0
Panose: 0 0 0 0 0 0 0 0 0 0
OS2TypoAscent: 6443
OS2TypoAOffset: 0
OS2TypoDescent: -2148
OS2TypoDOffset: 0
OS2TypoLinegap: 0
OS2WinAscent: 8589
OS2WinAOffset: 0
OS2WinDescent: 0
OS2WinDOffset: 0
HheadAscent: 750
HheadAOffset: 0
HheadDescent: -250
HheadDOffset: 0
OS2SubXSize: 5583
OS2SubYSize: 5151
OS2SubXOff: 0
OS2SubYOff: 641
OS2SupXSize: 5583
OS2SupYSize: 5151
OS2SupXOff: 0
OS2SupYOff: 3002
OS2StrikeYSize: 209
OS2StrikeYPos: 2529
OS2Vendor: 'newt'
OS2CodePages: 00000001.00000000
OS2UnicodeRanges: 00000001.00000000.00000000.00000000
DEI: 91125
LangName: 1033 "" "" "" "1.000;newt;BenchTwelve-Regular" "" "Version 1.000;PS (version unavailable);hotconv 1.0.57;makeotf.lib2.0.21895 DEVELOPMENT" 
PickledData: "(dp1
S'com.typemytype.robofont.foreground.layerStrokeColor'
p2
(F0.5
F0
F0.5
F0.69999999999999996
tp3
sS'com.typemytype.robofont.guides'
p4
((dp5
S'angle'
p6
I0
sS'name'
p7
NsS'magnetic'
p8
I5
sS'isGlobal'
p9
I1
sS'y'
I111
sS'x'
I895
s(dp10
g6
I0
sg7
Nsg8
I5
sg9
I1
sS'y'
I900
sS'x'
I889
s(dp11
g6
I0
sg7
Nsg8
I5
sg9
I1
sS'y'
I1052
sS'x'
I869
s(dp12
g6
I0
sg7
Nsg8
I5
sg9
I1
sS'y'
I1451
sS'x'
I431
s(dp13
g6
I0
sg7
Nsg8
I5
sg9
I1
sS'y'
I1388
sS'x'
I430
s(dp14
g6
I0
sg7
Nsg8
I5
sg9
I1
sS'y'
I51
sS'x'
I426
s(dp15
g6
I0
sg7
Nsg8
I5
sg9
I1
sS'y'
I-13
sS'x'
I424
stp16
sS'com.typemytype.robofont.b.layerStrokeColor'
p17
(F0.5
F1
F0
F0.69999999999999996
tp18

StartChar: .notdef
Encoding: 65536 -1 0
Width: 349
VWidth: 0
Flags: HW
LayerCount: 2
Fore
SplineSet
35 -299 m 1
 314 -299 l 1
 314 1475 l 1
 35 1475 l 1
 35 -299 l 1
70 -197 m 1
 70 1373 l 1
 280 1373 l 1
 280 -197 l 1
 70 -197 l 1
EndSplineSet
EndChar

StartChar: A
Encoding: 65 65 1
Width: 756
VWidth: 0
Flags: HW
PickledData: "(dp1
S'com.typemytype.robofont.layerData'
p2
(dp3
S'b'
(dp4
S'name'
p5
S'A'
sS'lib'
p6
(dp7
sS'unicodes'
p8
(tsS'width'
p9
F699.653061224
sS'contours'
p10
(tsS'components'
p11
(tsS'anchors'
p12
(tsss."
HStem: 360 60<231.9 240.886 530.775 533.022>
LayerCount: 2
Fore
SplineSet
240.886081633 420 m 2
 235.268081633 420 231.897281633 425 231.897281633 427 c 0
 231.897281633 428 231.897281633 431 233.020881633 436 c 2
 385.440661224 1278 l 1
 385.440661224 1278 385.440661224 1280 386.564261224 1280 c 2
 386.564261224 1280 386.564261224 1279 387.687861224 1278 c 2
 530.774881633 430 l 1
 533.022081633 429 533.022081633 427 533.022081633 425 c 0
 533.022081633 423 533.022081633 420 530.774881633 420 c 2
 240.886081633 420 l 2
79.6530612245 0 m 2
 114.653061224 0 l 2
 132.630661224 0 142.743061224 10 151.731861224 53 c 2
 209.035461224 354 l 1
 212.406261224 360 l 1
 548.362661224 360 l 1
 551.733461224 355 l 1
 601.171861224 53 l 2
 607.913461224 9 628.138261224 0 643.868661224 0 c 2
 678.868661224 0 l 2
 688.868661224 0 693.868661224 11 693.868661224 31 c 0
 693.868661224 41 688.868661224 39 686.868661224 53 c 2
 445.381281633 1380 l 2
 438.639681633 1421 425.890261224 1435 410.159861224 1438 c 1
 364.092261224 1438 l 1
 348.361861224 1435 336.392081633 1421 328.526881633 1380 c 2
 65.6530612245 53 l 2
 62.6530612245 39 64.6530612245 42 64.6530612245 32 c 0
 64.6530612245 11 70.6530612245 0 79.6530612245 0 c 2
EndSplineSet
EndChar

StartChar: B
Encoding: 66 66 3
Width: 906
VWidth: 0
Flags: HW
PickledData: "(dp1
S'com.typemytype.robofont.layerData'
p2
(dp3
S'b'
(dp4
S'name'
p5
S'B'
sS'lib'
p6
(dp7
sS'unicodes'
p8
(tsS'width'
p9
I873
sS'contours'
p10
((dp11
S'points'
p12
((dp13
S'segmentType'
p14
S'curve'
p15
sS'x'
F90
sS'smooth'
p16
I01
sS'y'
F0
s(dp17
g14
S'line'
p18
sS'x'
F425
sg16
I01
sS'y'
F0
s(dp19
S'y'
F0
sS'x'
F582
sg16
I00
s(dp20
S'y'
F102
sS'x'
F745
sg16
I00
s(dp21
g14
S'curve'
p22
sS'x'
F745
sg16
I01
sS'y'
F721
s(dp23
S'y'
F1293
sS'x'
F745
sg16
I00
s(dp24
S'y'
F1438
sS'x'
F582
sg16
I00
s(dp25
g14
S'curve'
p26
sS'x'
F425
sg16
I01
sS'y'
F1438
s(dp27
g14
S'line'
p28
sS'x'
F90
sg16
I01
sS'y'
F1438
s(dp29
S'y'
F1438
sS'x'
F76
sg16
I00
s(dp30
S'y'
F1434
sS'x'
F68
sg16
I00
s(dp31
g14
S'curve'
p32
sS'x'
F68
sg16
I01
sS'y'
F1411
s(dp33
g14
S'line'
p34
sS'x'
F68
sg16
I01
sS'y'
F37
s(dp35
S'y'
F4
sS'x'
F68
sg16
I00
s(dp36
S'y'
F0
sS'x'
F76
sg16
I00
stp37
s(dp38
g12
((dp39
g14
S'line'
p40
sS'x'
F155
sg16
I01
sS'y'
F60
s(dp41
S'y'
F60
sS'x'
F148
sg16
I00
s(dp42
S'y'
F64
sS'x'
F145
sg16
I00
s(dp43
g14
S'curve'
p44
sS'x'
F145
sg16
I01
sS'y'
F78
s(dp45
g14
S'line'
p46
sS'x'
F145
sg16
I01
sS'y'
F1364
s(dp47
S'y'
F1374
sS'x'
F145
sg16
I00
s(dp48
S'y'
F1378
sS'x'
F149
sg16
I00
s(dp49
g14
S'curve'
p50
sS'x'
F154
sg16
I01
sS'y'
F1378
s(dp51
g14
S'line'
p52
sS'x'
F425
sg16
I01
sS'y'
F1378
s(dp53
S'y'
F1378
sS'x'
F562
sg16
I00
s(dp54
S'y'
F1139
sS'x'
F667
sg16
I00
s(dp55
g14
S'curve'
p56
sS'x'
F667
sg16
I01
sS'y'
F721
s(dp57
S'y'
F231
sS'x'
F667
sg16
I00
s(dp58
S'y'
F60
sS'x'
F558
sg16
I00
s(dp59
g14
S'curve'
p60
sS'x'
F425
sg16
I01
sS'y'
F60
stp61
stp62
sS'components'
p63
(tsS'anchors'
p64
(tsss."
LayerCount: 2
Fore
SplineSet
194 795 m 2
 186 795 180 795 180 810 c 2
 180 1358 l 2
 180 1378 186 1378 194 1378 c 2
 458.8428 1378 l 2
 626.2592 1378 698.1696 1276 698.1696 1046 c 0
 698.1696 876 619.5176 795 515.0228 795 c 2
 194 795 l 2
194 60 m 2
 186 60 180 60 180 75 c 2
 180 718 l 2
 180 737 186 737 194 737 c 2
 508.2812 737 l 2
 631.8772 737 735.2484 623 735.2484 417 c 0
 735.2484 187 668.956 60 447.6068 60 c 2
 194 60 l 2
130 0 m 2
 433 0 l 2
 690.3044 0 816.2484 96 816.2484 424 c 0
 816.2484 590 749.2484 703 652.102 758 c 0
 647.6076 760 644.2368 763 644.2368 765 c 0
 644.2368 766 646.484 769 650.9784 772 c 0
 744.2484 826 776.2484 932 776.2484 1043 c 0
 776.2484 1342 649.8548 1438 455.472 1438 c 2
 130 1438 l 2
 114 1438 103 1438 103 1399 c 2
 103 37 l 2
 103 0 114 0 130 0 c 2
EndSplineSet
EndChar

StartChar: C
Encoding: 67 67 4
Width: 648
VWidth: 0
Flags: HW
PickledData: "(dp1
S'com.typemytype.robofont.layerData'
p2
(dp3
S'b'
(dp4
S'name'
p5
S'C'
sS'lib'
p6
(dp7
sS'unicodes'
p8
(tsS'width'
p9
F648
sS'contours'
p10
((dp11
S'points'
p12
((dp13
S'y'
F-21
sS'x'
F493
sS'smooth'
p14
I00
s(dp15
S'y'
F-17
sS'x'
F550
sg14
I00
s(dp16
S'segmentType'
p17
S'curve'
p18
sS'x'
F593
sg14
I00
sS'y'
F-2
s(dp19
g17
S'line'
p20
sS'x'
F593
sg14
I00
sS'y'
F63
s(dp21
S'y'
F52
sS'x'
F560
sg14
I00
s(dp22
S'y'
F44
sS'x'
F499
sg14
I00
s(dp23
g17
S'curve'
p24
sS'x'
F463
sg14
I01
sS'y'
F44
s(dp25
S'y'
F44
sS'x'
F316
sg14
I00
s(dp26
S'y'
F120
sS'x'
F198
sg14
I00
s(dp27
g17
S'curve'
p28
sS'x'
F198
sg14
I01
sS'y'
F721
s(dp29
S'y'
F1317
sS'x'
F198
sg14
I00
s(dp30
S'y'
F1392
sS'x'
F340
sg14
I00
s(dp31
g17
S'curve'
p32
sS'x'
F483
sg14
I01
sS'y'
F1392
s(dp33
S'y'
F1392
sS'x'
F554
sg14
I00
s(dp34
S'y'
F1367
sS'x'
F613
sg14
I00
s(dp35
g17
S'curve'
p36
sS'x'
F615
sg14
I01
sS'y'
F1367
s(dp37
S'y'
F1367
sS'x'
F619
sg14
I00
s(dp38
S'y'
F1368
sS'x'
F622
sg14
I00
s(dp39
g17
S'curve'
p40
sS'x'
F622
sg14
I01
sS'y'
F1376
s(dp41
g17
S'line'
p42
sS'x'
F622
sg14
I00
sS'y'
F1417
s(dp43
S'y'
F1426
sS'x'
F622
sg14
I00
s(dp44
S'y'
F1430
sS'x'
F614
sg14
I00
s(dp45
g17
S'curve'
p46
sS'x'
F610
sg14
I00
sS'y'
F1432
s(dp47
S'y'
F1441
sS'x'
F588
sg14
I00
s(dp48
S'y'
F1451
sS'x'
F554
sg14
I00
s(dp49
g17
S'curve'
p50
sS'x'
F502
sg14
I00
sS'y'
F1454
s(dp51
S'y'
F1455
sS'x'
F494
sg14
I00
s(dp52
S'y'
F1455
sS'x'
F484
sg14
I00
s(dp53
g17
S'curve'
p54
sS'x'
F474
sg14
I01
sS'y'
F1455
s(dp55
S'y'
F1455
sS'x'
F303
sg14
I00
s(dp56
S'y'
F1383
sS'x'
F120
sg14
I00
s(dp57
g17
S'curve'
p58
sS'x'
F120
sg14
I01
sS'y'
F721
s(dp59
S'y'
F22
sS'x'
F120
sg14
I00
s(dp60
S'y'
F-21
sS'x'
F307
sg14
I00
s(dp61
g17
S'curve'
p62
sS'x'
F462
sg14
I01
sS'y'
F-21
stp63
stp64
sS'components'
p65
(tsS'anchors'
p66
(tsss."
LayerCount: 2
Fore
SplineSet
433 -13 m 0
 464 -13 521 -9 564 6 c 1
 571 15 l 1
 571 63 l 1
 564 71 l 1
 531 60 470 51 434 51 c 0
 287 51 169 120 169 721 c 0
 169 1317 311 1388 454 1388 c 0
 525 1388 584 1363 586 1363 c 0
 590 1363 593 1364 593 1372 c 2
 593 1413 l 2
 593 1422 585 1426 581 1428 c 0
 555 1439 507 1451 445 1451 c 0
 274 1451 91 1383 91 721 c 0
 91 22 278 -13 433 -13 c 0
EndSplineSet
EndChar

StartChar: D
Encoding: 68 68 5
Width: 925
VWidth: 0
Flags: HW
PickledData: "(dp1
S'com.typemytype.robofont.guides'
p2
(tsS'com.typemytype.robofont.layerData'
p3
(dp4
S'b'
(dp5
S'name'
p6
S'D'
sS'lib'
p7
(dp8
sS'unicodes'
p9
(tsS'width'
p10
I862
sS'contours'
p11
(tsS'components'
p12
(tsS'anchors'
p13
(tsss."
LayerCount: 2
Fore
SplineSet
125 0 m 2
 455.282 0 l 2
 736.182 0 838.9012 102 838.9012 721 c 0
 838.9012 1293 695.7324 1438 455.282 1438 c 2
 125 1438 l 2
 111 1438 103 1434 103 1411 c 2
 103 37 l 2
 103 4 111 0 125 0 c 2
191.236 60 m 2
 183.3708 60 180 64 180 78 c 2
 180 1364 l 2
 180 1374 184.4944 1378 190.1124 1378 c 2
 455.282 1378 l 2
 688.9908 1378 760.9012 1162 760.9012 721 c 0
 760.9012 202 705.8448 60 455.282 60 c 2
 191.236 60 l 2
EndSplineSet
EndChar

StartChar: E
Encoding: 69 69 6
Width: 665
VWidth: 0
Flags: HW
PickledData: "(dp1
S'com.typemytype.robofont.layerData'
p2
(dp3
S'b'
(dp4
S'name'
p5
S'E'
sS'lib'
p6
(dp7
sS'unicodes'
p8
(tsS'width'
p9
I665
sS'contours'
p10
(tsS'components'
p11
(tsS'anchors'
p12
(tsss."
LayerCount: 2
Fore
SplineSet
125 0 m 2
 550 0 l 2
 564 0 572 0 572 27 c 2
 572 33 l 2
 572 60 564 60 550 60 c 2
 180 60 l 1
 180 699 l 1
 185 716 l 1
 504 716 l 2
 519 716 527 716 527 743 c 2
 527 750 l 2
 527 775 519 775 504 775 c 2
 184 775 l 1
 180 783 l 1
 180 1353 l 2
 180 1373 181 1378 189 1378 c 2
 549 1378 l 2
 563 1378 571 1378 571 1405 c 2
 571 1411 l 2
 571 1438 563 1438 549 1438 c 2
 125 1438 l 2
 111 1438 103 1433 103 1406 c 2
 103 32 l 2
 103 0 111 0 125 0 c 2
EndSplineSet
EndChar

StartChar: F
Encoding: 70 70 10
Width: 652
VWidth: 0
Flags: HW
PickledData: "(dp1
S'com.typemytype.robofont.layerData'
p2
(dp3
S'b'
(dp4
S'name'
p5
S'F'
sS'lib'
p6
(dp7
sS'unicodes'
p8
(tsS'width'
p9
I652
sS'contours'
p10
(tsS'components'
p11
(tsS'anchors'
p12
(tsss."
LayerCount: 2
Fore
SplineSet
125 0 m 2
 157 0 l 2
 172 0 180 0 180 32 c 2
 180 699 l 1
 185 716 l 1
 504 716 l 2
 519 716 527 716 527 743 c 2
 527 750 l 2
 527 775 519 775 504 775 c 2
 184 775 l 1
 180 783 l 1
 180 1353 l 2
 180 1373 181 1378 189 1378 c 2
 549 1378 l 2
 563 1378 571 1378 571 1405 c 2
 571 1411 l 2
 571 1438 563 1438 549 1438 c 2
 125 1438 l 2
 111 1438 103 1433 103 1406 c 2
 103 32 l 2
 103 0 111 0 125 0 c 2
EndSplineSet
EndChar

StartChar: G
Encoding: 71 71 11
Width: 879
VWidth: 0
Flags: HW
PickledData: "(dp1
S'com.typemytype.robofont.layerData'
p2
(dp3
S'b'
(dp4
S'name'
p5
S'G'
sS'lib'
p6
(dp7
sS'unicodes'
p8
(tsS'width'
p9
I820
sS'contours'
p10
((dp11
S'points'
p12
((dp13
S'y'
F-21
sS'x'
F556
sS'smooth'
p14
I00
s(dp15
S'y'
F45
sS'x'
F648
sg14
I00
s(dp16
S'segmentType'
p17
S'curve'
p18
sS'x'
F687
sg14
I01
sS'y'
F232
s(dp19
S'y'
F238
sS'x'
F688
sg14
I00
s(dp20
S'y'
F238
sS'x'
F690
sg14
I00
s(dp21
g17
S'curve'
p22
sS'x'
F692
sg14
I01
sS'y'
F238
s(dp23
S'y'
F238
sS'x'
F693
sg14
I00
s(dp24
S'y'
F236
sS'x'
F694
sg14
I00
s(dp25
g17
S'curve'
p26
sS'x'
F694
sg14
I01
sS'y'
F232
s(dp27
S'y'
F179
sS'x'
F694
sg14
I00
s(dp28
S'y'
F80
sS'x'
F700
sg14
I00
s(dp29
g17
S'curve'
p30
sS'x'
F703
sg14
I01
sS'y'
F50
s(dp31
S'y'
F7
sS'x'
F707
sg14
I00
s(dp32
S'y'
F0
sS'x'
F716
sg14
I00
s(dp33
g17
S'curve'
p34
sS'x'
F731
sg14
I01
sS'y'
F0
s(dp35
S'y'
F0
sS'x'
F746
sg14
I00
s(dp36
S'y'
F7
sS'x'
F754
sg14
I00
s(dp37
g17
S'curve'
p38
sS'x'
F754
sg14
I01
sS'y'
F50
s(dp39
g17
S'line'
p40
sS'x'
F754
sg14
I01
sS'y'
F683
s(dp41
S'y'
F726
sS'x'
F754
sg14
I00
s(dp42
S'y'
F717
sS'x'
F743
sg14
I00
s(dp43
g17
S'curve'
p44
sS'x'
F728
sg14
I01
sS'y'
F717
s(dp45
g17
S'line'
p46
sS'x'
F491
sg14
I01
sS'y'
F717
s(dp47
S'y'
F717
sS'x'
F477
sg14
I00
s(dp48
S'y'
F717
sS'x'
F465
sg14
I00
s(dp49
g17
S'curve'
p50
sS'x'
F465
sg14
I01
sS'y'
F685
s(dp51
g17
S'line'
p52
sS'x'
F465
sg14
I01
sS'y'
F674
s(dp53
S'y'
F642
sS'x'
F465
sg14
I00
s(dp54
S'y'
F642
sS'x'
F479
sg14
I00
s(dp55
g17
S'curve'
p56
sS'x'
F493
sg14
I01
sS'y'
F642
s(dp57
g17
S'line'
p58
sS'x'
F673
sg14
I01
sS'y'
F642
s(dp59
S'y'
F642
sS'x'
F678
sg14
I00
s(dp60
S'y'
F633
sS'x'
F680
sg14
I00
s(dp61
g17
S'curve'
p62
sS'x'
F680
sg14
I01
sS'y'
F563
s(dp63
S'y'
F294
sS'x'
F680
sg14
I00
s(dp64
S'y'
F43
sS'x'
F607
sg14
I00
s(dp65
g17
S'curve'
p66
sS'x'
F451
sg14
I01
sS'y'
F43
s(dp67
S'y'
F43
sS'x'
F318
sg14
I00
s(dp68
S'y'
F120
sS'x'
F196
sg14
I00
s(dp69
g17
S'curve'
p70
sS'x'
F196
sg14
I01
sS'y'
F721
s(dp71
S'y'
F1317
sS'x'
F196
sg14
I00
s(dp72
S'y'
F1392
sS'x'
F338
sg14
I00
s(dp73
g17
S'curve'
p74
sS'x'
F481
sg14
I01
sS'y'
F1392
s(dp75
S'y'
F1392
sS'x'
F534
sg14
I00
s(dp76
S'y'
F1376
sS'x'
F586
sg14
I00
s(dp77
g17
S'curve'
p78
sS'x'
F613
sg14
I00
sS'y'
F1365
s(dp79
S'y'
F1369
sS'x'
F615.25
sg14
I00
s(dp80
S'y'
F1368
sS'x'
F622
sg14
I00
s(dp81
g17
S'curve'
p82
sS'x'
F622
sg14
I00
sS'y'
F1381
s(dp83
g17
S'line'
p84
sS'x'
F622
sg14
I00
sS'y'
F1415
s(dp85
g17
S'line'
p86
sS'x'
F613
sg14
I00
sS'y'
F1429
s(dp87
S'y'
F1439
sS'x'
F587
sg14
I00
s(dp88
S'y'
F1455
sS'x'
F541
sg14
I00
s(dp89
g17
S'curve'
p90
sS'x'
F472
sg14
I01
sS'y'
F1455
s(dp91
S'y'
F1455
sS'x'
F301
sg14
I00
s(dp92
S'y'
F1383
sS'x'
F118
sg14
I00
s(dp93
g17
S'curve'
p94
sS'x'
F118
sg14
I01
sS'y'
F721
s(dp95
S'y'
F22
sS'x'
F118
sg14
I00
s(dp96
S'y'
F-21
sS'x'
F305
sg14
I00
s(dp97
g17
S'curve'
p98
sS'x'
F460
sg14
I00
sS'y'
F-21
stp99
stp100
sS'components'
p101
(tsS'anchors'
p102
(tsss."
LayerCount: 2
Fore
SplineSet
463.6304 -13 m 0
 571.496 -13 674.8672 45 717.8224 232 c 0
 718.8224 238 720.8224 238 722.8224 238 c 0
 723.8224 238 724.8224 236 724.8224 232 c 0
 724.8224 179 730.8224 65 733.8224 35 c 0
 737.8224 -8 746.8224 -15 761.8224 -15 c 0
 776.8224 -15 784.8224 -8 784.8224 35 c 2
 784.8224 683 l 2
 784.8224 726 773.8224 717 758.8224 717 c 2
 498.462 717 l 2
 482.7316 717 469.2484 717 469.2484 685 c 2
 469.2484 674 l 2
 469.2484 642 484.9788 642 500.7092 642 c 2
 702.9572 642 l 2
 708.5752 642 710.8224 633 710.8224 563 c 0
 710.8224 294 628.7996 51 453.518 51 c 0
 304.0792 51 167 120 167 721 c 0
 167 1351 346.776 1388 507.4508 1388 c 0
 587.2264 1388 655.766 1362 658.0132 1362 c 0
 662.5076 1362 665.8784 1363 665.8784 1371 c 2
 665.8784 1412 l 2
 665.8784 1421 656.8896 1425 652.3952 1427 c 0
 623.1816 1437 574.8668 1451 497.3384 1451 c 0
 305.2028 1451 89 1412 89 721 c 0
 89 22 289.4724 -13 463.6304 -13 c 0
EndSplineSet
EndChar

StartChar: H
Encoding: 72 72 12
Width: 849
VWidth: 0
Flags: HW
LayerCount: 2
Fore
SplineSet
127 0 m 2
 158 0 l 2
 173.7304 0 183.8428 4 183.8428 47 c 2
 183.8428 681 l 1
 189.4608 697 l 1
 659.1256 697 l 1
 665.8672 679 l 1
 665.8672 47 l 2
 665.8672 4 675.9796 0 692.8336 0 c 2
 724.8336 0 l 2
 738.8336 0 746.8336 4 746.8336 47 c 2
 746.8336 1391 l 2
 746.8336 1434 738.8336 1438 724.8336 1438 c 2
 692.8336 1438 l 2
 675.9796 1438 665.8672 1434 665.8672 1391 c 2
 665.8672 783 l 1
 658.002 765 l 1
 188.3372 765 l 1
 183.8428 780 l 1
 183.8428 1391 l 2
 183.8428 1434 173.7304 1438 158 1438 c 2
 127 1438 l 2
 111 1438 103 1434 103 1391 c 2
 103 47 l 2
 103 4 111 0 127 0 c 2
EndSplineSet
EndChar

StartChar: I
Encoding: 73 73 13
Width: 283
VWidth: 0
Flags: HW
LayerCount: 2
Fore
SplineSet
125 0 m 2
 157 0 l 2
 172 0 180 4 180 47 c 2
 180 1391 l 2
 180 1434 172 1438 157 1438 c 2
 125 1438 l 2
 111 1438 103 1434 103 1391 c 2
 103 47 l 2
 103 4 111 0 125 0 c 2
EndSplineSet
EndChar

StartChar: J
Encoding: 74 74 14
Width: 487
VWidth: 0
Flags: HW
PickledData: "(dp1
S'com.typemytype.robofont.layerData'
p2
(dp3
S'b'
(dp4
S'name'
p5
S'J'
sS'lib'
p6
(dp7
sS'unicodes'
p8
(tsS'width'
p9
I487
sS'contours'
p10
(tsS'components'
p11
(tsS'anchors'
p12
(tsss."
LayerCount: 2
Fore
SplineSet
72 -141 m 0
 285 -141 385 -137 385 371 c 2
 385 1383 l 2
 385 1426 377 1438 362 1438 c 2
 331 1438 l 2
 316 1438 308 1426 308 1383 c 2
 308 371 l 2
 308 -66 253 -75 72 -75 c 0
 67 -75 61 -75 61 -99 c 2
 61 -118 l 2
 61 -141 66 -141 72 -141 c 0
EndSplineSet
EndChar

StartChar: K
Encoding: 75 75 15
Width: 678
VWidth: 0
Flags: HW
PickledData: "(dp1
S'com.typemytype.robofont.layerData'
p2
(dp3
S'b'
(dp4
S'name'
p5
S'K'
sS'lib'
p6
(dp7
sS'unicodes'
p8
(tsS'width'
p9
I639
sS'contours'
p10
(tsS'components'
p11
(tsS'anchors'
p12
(tsss."
LayerCount: 2
Fore
SplineSet
124 0 m 2
 156 0 l 2
 172.854 0 181.8428 24 181.8428 67 c 2
 181.8428 735 l 1
 480.7204 67 l 2
 496.4508 32 507.6868 0 523.4172 0 c 2
 566.4172 0 l 2
 580.4172 0 586.4172 33 573.4172 67 c 1
 280.7196 736 l 2
 278.4724 741 278.4724 745 278.4724 748 c 0
 278.4724 753 279.596 757 279.596 759 c 2
 550.4172 1365 l 1
 564.4172 1399 556.4172 1438 542.4172 1438 c 2
 498.698 1438 l 2
 482.9676 1438 471.7316 1410 456.0012 1376 c 2
 181.8428 762 l 1
 181.8428 1371 l 2
 181.8428 1414 172.854 1438 156 1438 c 2
 124 1438 l 2
 110 1438 102 1414 102 1371 c 2
 102 67 l 2
 102 24 110 0 124 0 c 2
EndSplineSet
EndChar

StartChar: L
Encoding: 76 76 16
Width: 559
VWidth: 0
Flags: HW
LayerCount: 2
Fore
SplineSet
125 0 m 2
 461 0 l 2
 474 0 484 0 484 27 c 2
 484 35 l 2
 484 60 474 60 461 60 c 2
 194 60 l 2
 186 60 180 58 180 78 c 2
 180 1391 l 2
 180 1434 172 1438 157 1438 c 2
 125 1438 l 2
 111 1438 103 1434 103 1391 c 2
 103 47 l 2
 103 4 111 0 125 0 c 2
EndSplineSet
EndChar

StartChar: M
Encoding: 77 77 17
Width: 991
VWidth: 0
Flags: HW
PickledData: "(dp1
S'com.typemytype.robofont.layerData'
p2
(dp3
S'b'
(dp4
S'name'
p5
S'M'
sS'lib'
p6
(dp7
sS'unicodes'
p8
(tsS'width'
p9
I923
sS'contours'
p10
(tsS'components'
p11
(tsS'anchors'
p12
(tsss."
LayerCount: 2
Fore
SplineSet
119 0 m 2
 145 0 l 2
 159 0 167 24 169 67 c 2
 200 1161 l 1
 203.3708 1165 l 1
 439.7876 67 l 2
 448.7764 26 462.2596 0 476.8664 0 c 2
 505.8664 1 l 2
 520.4732 1 536.2036 26 545.1924 67 c 2
 785.3956 1178 l 1
 789.89 1177 l 1
 823.8452 67 l 2
 824.8452 24 833.8452 0 848.8452 0 c 2
 872.8452 0 l 2
 887.8452 0 894.8452 24 893.8452 67 c 2
 851.89 1371 l 2
 850.89 1412 844.89 1435 830.89 1438 c 1
 793.89 1438 l 1
 779.7776 1435 766.2944 1412 756.182 1371 c 1
 495.8664 183 l 1
 487.8664 183 l 1
 232.5844 1371 l 1
 222.472 1412 210.1124 1435 195 1438 c 1
 159 1438 l 1
 145 1435 138 1412 137 1371 c 2
 97 67 l 2
 96 24 105 0 119 0 c 2
EndSplineSet
EndChar

StartChar: N
Encoding: 78 78 18
Width: 854
VWidth: 0
Flags: HW
PickledData: "(dp1
S'com.typemytype.robofont.layerData'
p2
(dp3
S'b'
(dp4
S'name'
p5
S'N'
sS'lib'
p6
(dp7
sS'unicodes'
p8
(tsS'width'
p9
I794
sS'contours'
p10
(tsS'components'
p11
(tsS'anchors'
p12
(tsss."
LayerCount: 2
Fore
SplineSet
127 0 m 2
 154 0 l 2
 169.7304 0 179.8428 14 179.8428 57 c 2
 179.8428 1173 l 1
 184.3372 1182 l 1
 691.0808 19 l 1
 695.5752 6 701.1932 0 710.182 0 c 2
 729.182 0 l 2
 744.182 0 752.182 4 752.182 47 c 2
 752.182 1391 l 2
 752.182 1434 744.182 1438 729.182 1438 c 2
 700.0696 1438 l 2
 683.2156 1438 674.2268 1434 674.2268 1391 c 2
 674.2268 255 l 1
 669.7324 242 l 1
 162.9888 1420 l 2
 157.3708 1432 152 1438 144 1438 c 2
 127 1438 l 2
 111 1438 103 1434 103 1391 c 2
 103 57 l 2
 103 14 111 0 127 0 c 2
EndSplineSet
EndChar

StartChar: O
Encoding: 79 79 19
Width: 927
VWidth: 0
Flags: HW
PickledData: "(dp1
S'com.typemytype.robofont.layerData'
p2
(dp3
S'b'
(dp4
S'name'
p5
S'O'
sS'lib'
p6
(dp7
sS'unicodes'
p8
(tsS'width'
p9
I863
sS'contours'
p10
(tsS'components'
p11
(tsS'anchors'
p12
(tsss."
HStem: -13 64<323.632 608.836> 1388 63<337.25 593.902>
VStem: 91 79<305.77 1137.19> 757.643 79<316.846 1137.18>
LayerCount: 2
Fore
SplineSet
463.2596 -13 m 0
 714.946 -13 836.6428 85 836.6428 724 c 0
 836.6428 1316 714.946 1451 463.2596 1451 c 0
 214.944 1451 91 1306 91 724 c 0
 91 95 214.944 -13 463.2596 -13 c 0
463.2596 51 m 0
 278.9892 51 170 128 170 724 c 0
 170 1252 274.4948 1388 463.2596 1388 c 0
 654.2716 1388 757.6428 1273 757.6428 724 c 0
 757.6428 114 649.7772 51 463.2596 51 c 0
EndSplineSet
EndChar

StartChar: OE
Encoding: 338 338 20
Width: 1368
VWidth: 0
Flags: HW
LayerCount: 2
Fore
SplineSet
539.7984 376 m 2
 440.9216 376 378 454 378 721 c 0
 378 988 440.9216 1065 539.7984 1065 c 2
 621.8212 1065 l 2
 628.5628 1065 635.3044 1048 635.3044 1028 c 2
 635.3044 413 l 2
 635.3044 393 628.5628 376 621.8212 376 c 2
 539.7984 376 l 2
555.5288 -1 m 0
 583.6188 -1 558.8996 0 1248.3044 0 c 0
 1262.3044 0 1274.3044 34 1274.3044 77 c 2
 1274.3044 300 l 2
 1274.3044 343 1262.3044 377 1248.3044 377 c 2
 916.3044 377 l 2
 909.3044 377 904.3044 394 904.3044 414 c 2
 904.3044 541 l 2
 904.3044 561 909.3044 578 916.3044 578 c 2
 1156.3044 578 l 2
 1172.3044 578 1184.3044 612 1184.3044 655 c 2
 1184.3044 804 l 2
 1184.3044 847 1172.3044 881 1156.3044 881 c 2
 916.3044 881 l 2
 909.3044 881 904.3044 898 904.3044 918 c 2
 904.3044 1018 l 2
 904.3044 1038 909.3044 1055 916.3044 1055 c 2
 1222.3044 1055 l 2
 1237.3044 1055 1248.3044 1089 1248.3044 1132 c 2
 1248.3044 1361 l 2
 1248.3044 1403 1236.3044 1438 1222.3044 1438 c 2
 525.1916 1438 l 2
 328 1438 86 1291 86 721 c 0
 86 70 355 -1 555.5288 -1 c 0
EndSplineSet
EndChar

StartChar: P
Encoding: 80 80 22
Width: 803
VWidth: 0
Flags: HW
PickledData: "(dp1
S'com.typemytype.robofont.layerData'
p2
(dp3
S'b'
(dp4
S'name'
p5
S'P'
sS'lib'
p6
(dp7
sS'unicodes'
p8
(tsS'width'
p9
I803
sS'contours'
p10
((dp11
S'points'
p12
((dp13
S'segmentType'
p14
S'curve'
p15
sS'x'
F153
sS'smooth'
p16
I01
sS'y'
F0
s(dp17
g14
S'line'
p18
sS'x'
F453
sg16
I01
sS'y'
F0
s(dp19
S'y'
F0
sS'x'
F703
sg16
I00
s(dp20
S'y'
F102
sS'x'
F803
sg16
I00
s(dp21
g14
S'curve'
p22
sS'x'
F803
sg16
I01
sS'y'
F721
s(dp23
S'y'
F1293
sS'x'
F803
sg16
I00
s(dp24
S'y'
F1438
sS'x'
F667
sg16
I00
s(dp25
g14
S'curve'
p26
sS'x'
F453
sg16
I01
sS'y'
F1438
s(dp27
g14
S'line'
p28
sS'x'
F153
sg16
I01
sS'y'
F1438
s(dp29
S'y'
F1438
sS'x'
F139
sg16
I00
s(dp30
S'y'
F1434
sS'x'
F131
sg16
I00
s(dp31
g14
S'curve'
p32
sS'x'
F131
sg16
I01
sS'y'
F1411
s(dp33
g14
S'line'
p34
sS'x'
F131
sg16
I01
sS'y'
F37
s(dp35
S'y'
F4
sS'x'
F131
sg16
I00
s(dp36
S'y'
F0
sS'x'
F139
sg16
I00
stp37
s(dp38
g12
((dp39
g14
S'line'
p40
sS'x'
F218
sg16
I01
sS'y'
F60
s(dp41
S'y'
F60
sS'x'
F211
sg16
I00
s(dp42
S'y'
F64
sS'x'
F208
sg16
I00
s(dp43
g14
S'curve'
p44
sS'x'
F208
sg16
I01
sS'y'
F78
s(dp45
g14
S'line'
p46
sS'x'
F208
sg16
I01
sS'y'
F1364
s(dp47
S'y'
F1374
sS'x'
F208
sg16
I00
s(dp48
S'y'
F1378
sS'x'
F212
sg16
I00
s(dp49
g14
S'curve'
p50
sS'x'
F217
sg16
I01
sS'y'
F1378
s(dp51
g14
S'line'
p52
sS'x'
F453
sg16
I01
sS'y'
F1378
s(dp53
S'y'
F1378
sS'x'
F661
sg16
I00
s(dp54
S'y'
F1162
sS'x'
F725
sg16
I00
s(dp55
g14
S'curve'
p56
sS'x'
F725
sg16
I01
sS'y'
F721
s(dp57
S'y'
F202
sS'x'
F725
sg16
I00
s(dp58
S'y'
F60
sS'x'
F676
sg16
I00
s(dp59
g14
S'curve'
p60
sS'x'
F453
sg16
I01
sS'y'
F60
stp61
stp62
sS'components'
p63
(tsS'anchors'
p64
(tsss."
LayerCount: 2
Fore
SplineSet
185 618 m 2
 180 618 180 623 180 628 c 2
 180 1369 l 2
 180 1375 182 1378 186 1378 c 2
 351 1378 l 2
 519 1378 637 1368 637 994 c 0
 637 648 574 618 402 618 c 2
 185 618 l 2
125 0 m 2
 157 0 l 2
 172 0 180 6 180 42 c 2
 180 546 l 2
 180 554 182 558 187 558 c 2
 404 558 l 2
 586 558 714 578 714 994 c 0
 714 1429 539 1438 351 1438 c 2
 125 1438 l 2
 111 1438 103 1436 103 1393 c 2
 103 42 l 2
 103 5 111 0 125 0 c 2
EndSplineSet
EndChar

StartChar: Q
Encoding: 81 81 23
Width: 927
VWidth: 0
Flags: HW
PickledData: "(dp1
S'com.typemytype.robofont.layerData'
p2
(dp3
S'b'
(dp4
S'name'
p5
S'Q'
sS'lib'
p6
(dp7
sS'unicodes'
p8
(tsS'width'
p9
I863
sS'contours'
p10
(tsS'components'
p11
(tsS'anchors'
p12
(tsss."
LayerCount: 2
Fore
SplineSet
463.2596 51 m 0
 278.9892 51 170 128 170 724 c 0
 170 1252 274.4948 1388 463.2596 1388 c 0
 654.2716 1388 757.6428 1273 757.6428 724 c 0
 757.6428 114 649.7772 51 463.2596 51 c 0
611.5748 -305 m 2
 624.774003225 -349.378476884 636.136992017 -344.046578849 673.3728 -333 c 0
 702.5864 -324 693.5976 -316 683.4852 -282 c 2
 602.586 4 l 1
 762.6428 53 836.6428 216 836.6428 724 c 0
 836.6428 1316 714.946 1451 463.2596 1451 c 0
 214.944 1451 91 1306 91 724 c 0
 91 95 214.944 -13 463.2596 -13 c 0
 484.608 -13 504.8328 -12 523.934 -11 c 1
 611.5748 -305 l 2
EndSplineSet
EndChar

StartChar: R
Encoding: 82 82 24
Width: 896
VWidth: 0
Flags: HW
PickledData: "(dp1
S'com.typemytype.robofont.layerData'
p2
(dp3
S'b'
(dp4
S'name'
p5
S'R'
sS'lib'
p6
(dp7
sS'unicodes'
p8
(tsS'width'
p9
I832
sS'contours'
p10
((dp11
S'points'
p12
((dp13
S'segmentType'
p14
S'line'
p15
sS'x'
F213
sS'smooth'
p16
I01
sS'y'
F618
s(dp17
S'y'
F618
sS'x'
F208
sg16
I00
s(dp18
S'y'
F623
sS'x'
F208
sg16
I00
s(dp19
g14
S'curve'
p20
sS'x'
F208
sg16
I00
sS'y'
F628
s(dp21
S'y'
F809
sS'x'
F208
sg16
I00
s(dp22
S'y'
F1364
sS'x'
F208
sg16
I00
s(dp23
g14
S'curve'
p24
sS'x'
F208
sg16
I00
sS'y'
F1369
s(dp25
S'y'
F1375
sS'x'
F208
sg16
I00
s(dp26
S'y'
F1378
sS'x'
F210
sg16
I00
s(dp27
g14
S'curve'
p28
sS'x'
F214
sg16
I01
sS'y'
F1378
s(dp29
g14
S'line'
p30
sS'x'
F379
sg16
I01
sS'y'
F1378
s(dp31
S'y'
F1378
sS'x'
F547
sg16
I00
s(dp32
S'y'
F1368
sS'x'
F665
sg16
I00
s(dp33
g14
S'curve'
p34
sS'x'
F665
sg16
I01
sS'y'
F994
s(dp35
S'y'
F648
sS'x'
F665
sg16
I00
s(dp36
S'y'
F618
sS'x'
F602
sg16
I00
s(dp37
g14
S'curve'
p38
sS'x'
F430
sg16
I01
sS'y'
F618
stp39
s(dp40
g12
((dp41
g14
S'curve'
p42
sS'x'
F153
sg16
I01
sS'y'
F0
s(dp43
g14
S'line'
p44
sS'x'
F185
sg16
I01
sS'y'
F0
s(dp45
S'y'
F0
sS'x'
F200
sg16
I00
s(dp46
S'y'
F6
sS'x'
F208
sg16
I00
s(dp47
g14
S'curve'
p48
sS'x'
F208
sg16
I01
sS'y'
F42
s(dp49
g14
S'line'
p50
sS'x'
F208
sg16
I00
sS'y'
F546
s(dp51
S'y'
F554
sS'x'
F208
sg16
I00
s(dp52
S'y'
F558
sS'x'
F210
sg16
I00
s(dp53
g14
S'curve'
p54
sS'x'
F215
sg16
I01
sS'y'
F558
s(dp55
g14
S'line'
p56
sS'x'
F432
sg16
I01
sS'y'
F558
s(dp57
S'y'
F558
sS'x'
F614
sg16
I00
s(dp58
S'y'
F578
sS'x'
F742
sg16
I00
s(dp59
g14
S'curve'
p60
sS'x'
F742
sg16
I01
sS'y'
F994
s(dp61
S'y'
F1429
sS'x'
F742
sg16
I00
s(dp62
S'y'
F1438
sS'x'
F567
sg16
I00
s(dp63
g14
S'curve'
p64
sS'x'
F379
sg16
I01
sS'y'
F1438
s(dp65
g14
S'line'
p66
sS'x'
F153
sg16
I01
sS'y'
F1438
s(dp67
S'y'
F1438
sS'x'
F139
sg16
I00
s(dp68
S'y'
F1436
sS'x'
F131
sg16
I00
s(dp69
g14
S'curve'
p70
sS'x'
F131
sg16
I01
sS'y'
F1393
s(dp71
g14
S'line'
p72
sS'x'
F131
sg16
I01
sS'y'
F42
s(dp73
S'y'
F5
sS'x'
F131
sg16
I00
s(dp74
S'y'
F0
sS'x'
F139
sg16
I00
stp75
stp76
sS'components'
p77
(tsS'anchors'
p78
(tsss."
LayerCount: 2
Fore
SplineSet
185.618 688 m 2
 180 688 180 693 180 698 c 2
 180 1369 l 2
 180 1375 182.2472 1378 186.7416 1378 c 2
 372.1356 1378 l 2
 560.9004 1378 693.4852 1375 693.4852 1054 c 0
 693.4852 729 600.2264 688 406.9672 688 c 2
 185.618 688 l 2
125 0 m 2
 157 0 l 2
 173.854 0 182.8428 6 182.8428 42 c 2
 180 616 l 2
 180 624 182.2472 628 187.8652 628 c 2
 409.2144 628 l 2
 444.046 628 477.754 629 510.3384 632 c 1
 539.024 599 582.8444 531 623.294 403 c 1
 726.6652 56 l 1
 735.654 17 739.0248 0 754.7552 0 c 2
 782.7552 0 l 2
 795.7552 0 809.7552 16 801.7552 56 c 1
 704.1932 417 l 1
 667.1144 535 622.1704 601 587.8668 635 c 1
 586.7432 638 585.6196 641 585.6196 643 c 0
 585.6196 647 588.9904 648 591.2376 649 c 0
 702.4852 685 770.4852 786 770.4852 1054 c 0
 770.4852 1438 583.3724 1438 372.1356 1438 c 2
 125 1438 l 2
 111 1438 103 1436 103 1393 c 2
 103 42 l 2
 103 5 111 0 125 0 c 2
EndSplineSet
EndChar

StartChar: S
Encoding: 83 83 25
Width: 831
VWidth: 0
Flags: HW
PickledData: "(dp1
S'com.typemytype.robofont.layerData'
p2
(dp3
S'b'
(dp4
S'name'
p5
S'S'
sS'lib'
p6
(dp7
sS'unicodes'
p8
(tsS'width'
p9
I831
sS'contours'
p10
((dp11
S'points'
p12
((dp13
S'segmentType'
p14
S'curve'
p15
sS'x'
F591
sS'smooth'
p16
I00
sS'y'
F-2
s(dp17
g14
S'line'
p18
sS'x'
F591
sg16
I00
sS'y'
F63
s(dp19
S'y'
F52
sS'x'
F558
sg16
I00
s(dp20
S'y'
F44
sS'x'
F497
sg16
I00
s(dp21
g14
S'curve'
p22
sS'x'
F461
sg16
I01
sS'y'
F44
s(dp23
S'y'
F44
sS'x'
F314
sg16
I00
s(dp24
S'y'
F120
sS'x'
F196
sg16
I00
s(dp25
g14
S'curve'
p26
sS'x'
F196
sg16
I01
sS'y'
F721
s(dp27
S'y'
F1317
sS'x'
F196
sg16
I00
s(dp28
S'y'
F1392
sS'x'
F338
sg16
I00
s(dp29
g14
S'curve'
p30
sS'x'
F481
sg16
I01
sS'y'
F1392
s(dp31
S'y'
F1392
sS'x'
F552
sg16
I00
s(dp32
S'y'
F1367
sS'x'
F611
sg16
I00
s(dp33
g14
S'curve'
p34
sS'x'
F613
sg16
I01
sS'y'
F1367
s(dp35
S'y'
F1367
sS'x'
F617
sg16
I00
s(dp36
S'y'
F1368
sS'x'
F620
sg16
I00
s(dp37
g14
S'curve'
p38
sS'x'
F620
sg16
I01
sS'y'
F1376
s(dp39
g14
S'line'
p40
sS'x'
F620
sg16
I00
sS'y'
F1417
s(dp41
S'y'
F1426
sS'x'
F620
sg16
I00
s(dp42
S'y'
F1430
sS'x'
F612
sg16
I00
s(dp43
g14
S'curve'
p44
sS'x'
F608
sg16
I00
sS'y'
F1432
s(dp45
S'y'
F1443
sS'x'
F582
sg16
I00
s(dp46
S'y'
F1455
sS'x'
F534
sg16
I00
s(dp47
g14
S'curve'
p48
sS'x'
F472
sg16
I01
sS'y'
F1455
s(dp49
S'y'
F1455
sS'x'
F301
sg16
I00
s(dp50
S'y'
F1383
sS'x'
F118
sg16
I00
s(dp51
g14
S'curve'
p52
sS'x'
F118
sg16
I01
sS'y'
F721
s(dp53
S'y'
F22
sS'x'
F118
sg16
I00
s(dp54
S'y'
F-21
sS'x'
F305
sg16
I00
s(dp55
g14
S'curve'
p56
sS'x'
F460
sg16
I01
sS'y'
F-21
s(dp57
S'y'
F-21
sS'x'
F491
sg16
I00
s(dp58
S'y'
F-17
sS'x'
F548
sg16
I00
stp59
stp60
sS'components'
p61
(tsS'anchors'
p62
(tsss."
LayerCount: 2
Fore
SplineSet
409 -13 m 0
 642 -13 741 124 741 394 c 0
 741 616 666 706 463 773 c 0
 218 854 169 899 169 1094 c 0
 169 1283 291 1388 435 1388 c 0
 545 1388 593 1363 653 1322 c 0
 654 1321 656 1321 657 1321 c 0
 670 1321 687 1346 687 1364 c 0
 687 1369 686 1373 683 1376 c 0
 617 1427 544 1451 436 1451 c 0
 259 1451 96 1350 96 1084 c 0
 96 855 183 789 446 703 c 0
 655 635 666 534 666 379 c 0
 666 160 584 51 417 51 c 0
 218 51 146 111 121 111 c 0
 109 111 100 111 95 89 c 1
 95 79 l 2
 95 68 92 64 101 54 c 0
 132 21 263 -13 409 -13 c 0
EndSplineSet
EndChar

StartChar: T
Encoding: 84 84 26
Width: 567
VWidth: 0
Flags: HW
PickledData: "(dp1
S'com.typemytype.robofont.layerData'
p2
(dp3
S'b'
(dp4
S'name'
p5
S'T'
sS'lib'
p6
(dp7
sS'unicodes'
p8
(tsS'width'
p9
I567
sS'contours'
p10
(tsS'components'
p11
(tsS'anchors'
p12
(tsss."
LayerCount: 2
Fore
SplineSet
268 0 m 2
 300 0 l 2
 315 0 323 4 323 47 c 2
 323 1346 l 2
 323 1366 326 1371 333 1371 c 2
 512 1371 l 2
 528 1371 535 1371 535 1398 c 2
 535 1404 l 2
 535 1438 528 1438 512 1438 c 2
 55 1438 l 2
 40 1438 32 1438 32 1404 c 2
 32 1398 l 2
 32 1371 40 1371 55 1371 c 2
 236 1371 l 2
 243 1371 245 1366 245 1346 c 2
 245 47 l 2
 245 4 253 0 268 0 c 2
EndSplineSet
EndChar

StartChar: U
Encoding: 85 85 27
Width: 958
VWidth: 0
Flags: HW
PickledData: "(dp1
S'com.typemytype.robofont.layerData'
p2
(dp3
S'b'
(dp4
S'name'
p5
S'U'
sS'lib'
p6
(dp7
sS'unicodes'
p8
(tsS'width'
p9
I892
sS'contours'
p10
((dp11
S'points'
p12
((dp13
S'segmentType'
p14
S'curve'
p15
sS'x'
F474
sS'smooth'
p16
I01
sS'y'
F-21
s(dp17
S'y'
F-21
sS'x'
F698
sg16
I00
s(dp18
S'y'
F105
sS'x'
F815
sg16
I00
s(dp19
g14
S'curve'
p20
sS'x'
F815
sg16
I01
sS'y'
F724
s(dp21
S'y'
F1296
sS'x'
F815
sg16
I00
s(dp22
S'y'
F1455
sS'x'
F698
sg16
I00
s(dp23
g14
S'curve'
p24
sS'x'
F474
sg16
I01
sS'y'
F1455
s(dp25
S'y'
F1455
sS'x'
F253
sg16
I00
s(dp26
S'y'
F1296
sS'x'
F134
sg16
I00
s(dp27
g14
S'curve'
p28
sS'x'
F134
sg16
I01
sS'y'
F724
s(dp29
S'y'
F105
sS'x'
F134
sg16
I00
s(dp30
S'y'
F-21
sS'x'
F253
sg16
I00
stp31
s(dp32
g12
((dp33
g14
S'curve'
p34
sS'x'
F474
sg16
I01
sS'y'
F43
s(dp35
S'y'
F43
sS'x'
F310
sg16
I00
s(dp36
S'y'
F128
sS'x'
F213
sg16
I00
s(dp37
g14
S'curve'
p38
sS'x'
F213
sg16
I01
sS'y'
F724
s(dp39
S'y'
F1252
sS'x'
F213
sg16
I00
s(dp40
S'y'
F1392
sS'x'
F306
sg16
I00
s(dp41
g14
S'curve'
p42
sS'x'
F474
sg16
I01
sS'y'
F1392
s(dp43
S'y'
F1392
sS'x'
F644
sg16
I00
s(dp44
S'y'
F1261
sS'x'
F736
sg16
I00
s(dp45
g14
S'curve'
p46
sS'x'
F736
sg16
I01
sS'y'
F724
s(dp47
S'y'
F124
sS'x'
F736
sg16
I00
s(dp48
S'y'
F43
sS'x'
F640
sg16
I00
stp49
stp50
sS'components'
p51
(tsS'anchors'
p52
(tsss."
LayerCount: 2
Fore
SplineSet
479.2484 -13 m 0
 697.2268 -13 859.4968 29 859.4968 648 c 2
 859.4968 1391 l 2
 859.4968 1434 851.4968 1438 837.4968 1438 c 2
 804.4968 1438 l 2
 789.4968 1438 781.4968 1434 781.4968 1391 c 2
 781.4968 648 l 2
 781.4968 99 662.3952 51 478.1248 51 c 0
 297.2252 51 177 86 177 648 c 2
 177 1391 l 2
 177 1434 168 1438 154 1438 c 2
 122 1438 l 2
 107 1438 99 1434 99 1391 c 2
 99 648 l 2
 99 29 257.8992 -13 479.2484 -13 c 0
EndSplineSet
EndChar

StartChar: V
Encoding: 86 86 28
Width: 719
VWidth: 0
Flags: HW
PickledData: "(dp1
S'com.typemytype.robofont.layerData'
p2
(dp3
S'b'
(dp4
S'name'
p5
S'V'
sS'lib'
p6
(dp7
sS'unicodes'
p8
(tsS'width'
p9
F719.55935598300005
sS'contours'
p10
(tsS'components'
p11
(tsS'anchors'
p12
(tsss."
LayerCount: 2
Fore
SplineSet
351.521525188 0 m 1
 388.521525188 0 l 1
 403.521525188 3 413.521525188 16 420.521525188 57 c 2
 655.521525188 1371 l 2
 663.521525188 1414 659.521525188 1438 644.521525188 1438 c 2
 606.521525188 1438 l 2
 591.521525188 1438 582.521525188 1419 575.521525188 1376 c 2
 371.521525188 164 l 1
 146.521525188 1376 l 2
 138.521525188 1419 127.521525188 1438 113.521525188 1438 c 2
 74.5215251875 1438 l 2
 60.5215251875 1438 55.5215251875 1414 64.5215251875 1371 c 2
 316.521525188 57 l 1
 325.521525188 16 338.521525188 3 351.521525188 0 c 1
EndSplineSet
EndChar

StartChar: W
Encoding: 87 87 29
Width: 1226
VWidth: 0
Flags: HW
PickledData: "(dp1
S'com.typemytype.robofont.layerData'
p2
(dp3
S'b'
(dp4
S'name'
p5
S'W'
sS'lib'
p6
(dp7
sS'unicodes'
p8
(tsS'width'
p9
F1169.3957013700001
sS'contours'
p10
(tsS'components'
p11
(tsS'anchors'
p12
(tsss."
LayerCount: 2
Fore
SplineSet
322.521525188 0 m 1
 362.521525188 0 l 1
 378.251925188 3 390.611525188 26 397.353125188 67 c 2
 614.207925188 1294 l 1
 849.040325188 67 l 2
 856.905525188 25 870.388725188 3 887.242725188 0 c 1
 926.242725188 0 l 1
 940.242725188 3 951.242725188 26 957.242725188 67 c 2
 1166.24272519 1371 l 2
 1173.24272519 1414 1171.24272519 1438 1156.24272519 1438 c 2
 1120.7212 1438 l 2
 1106.7212 1438 1094.7212 1414 1087.7212 1371 c 2
 906.7212 192 l 1
 677.129525188 1385 l 2
 668.678339487 1428 654.657525188 1438 637.803525188 1438 c 2
 589.488725188 1438 l 2
 574.881925188 1438 558.565539487 1428 551.286325188 1385 c 2
 343 192 l 1
 146 1371 l 2
 139 1414 125 1438 110 1438 c 2
 71.5215251875 1438 l 2
 57.5215251875 1438 52.5215251875 1414 61.5215251875 1371 c 1
 289.521525188 67 l 2
 296.521525188 26 308.521525188 3 322.521525188 0 c 1
EndSplineSet
EndChar

StartChar: X
Encoding: 88 88 30
Width: 825
VWidth: 0
Flags: HW
PickledData: "(dp1
S'com.typemytype.robofont.layerData'
p2
(dp3
S'b'
(dp4
S'name'
p5
S'X'
sS'lib'
p6
(dp7
sS'unicodes'
p8
(tsS'width'
p9
I763
sS'contours'
p10
(tsS'components'
p11
(tsS'anchors'
p12
(tsss."
LayerCount: 2
Fore
SplineSet
127 0 m 2
 143.854 0 155.09 5 171.944 47 c 2
 421.3832 658 l 1
 647.2268 47 l 2
 662.9572 4 680.9348 0 697.7888 0 c 2
 721.7888 0 l 2
 732.7888 0 738.7888 9 738.7888 24 c 0
 738.7888 35 735.7888 50 729.7888 67 c 2
 471.9452 750 l 1
 729.7888 1383 l 2
 734.7888 1397 736.7888 1408 736.7888 1416 c 0
 736.7888 1431 730.7888 1438 718.7888 1438 c 2
 687.6764 1438 l 2
 670.8224 1438 655.092 1432 639.3616 1390 c 2
 424.754 825 l 1
 214.6408 1390 l 2
 198.9104 1433 184.3036 1438 167.4496 1438 c 2
 128.1236 1438 l 2
 121 1438 117 1432 117 1420 c 0
 117 1409 122 1392 128.1236 1371 c 1
 366.3268 748 l 1
 93 67 l 2
 86 47 83 31 83 20 c 0
 83 7 88 0 94 0 c 2
 127 0 l 2
EndSplineSet
EndChar

StartChar: Y
Encoding: 89 89 31
Width: 622
VWidth: 0
Flags: HW
PickledData: "(dp1
S'com.typemytype.robofont.layerData'
p2
(dp3
S'b'
(dp4
S'name'
p5
S'Y'
sS'lib'
p6
(dp7
sS'unicodes'
p8
(tsS'width'
p9
I622
sS'contours'
p10
(tsS'components'
p11
(tsS'anchors'
p12
(tsss."
LayerCount: 2
Fore
SplineSet
296 0 m 2
 328 0 l 2
 343 0 350 10 350 53 c 2
 350 717 l 1
 565 1381 l 2
 571 1399 571 1407 571 1418 c 0
 571 1431 565 1438 550 1438 c 2
 531 1438 l 2
 515 1438 500 1425 493 1401 c 2
 313 814 l 1
 132 1401 l 2
 123 1429 106 1438 92 1438 c 2
 73 1438 l 2
 59 1438 51 1432 51 1420 c 0
 51 1409 52 1401 59 1381 c 2
 273 713 l 1
 273 53 l 2
 273 10 281 0 296 0 c 2
EndSplineSet
EndChar

StartChar: Z
Encoding: 90 90 32
Width: 648
VWidth: 0
Flags: HW
PickledData: "(dp1
S'com.typemytype.robofont.layerData'
p2
(dp3
S'b'
(dp4
S'name'
p5
S'Z'
sS'lib'
p6
(dp7
sS'unicodes'
p8
(tsS'width'
p9
I648
sS'contours'
p10
((dp11
S'points'
p12
((dp13
S'segmentType'
p14
S'curve'
p15
sS'x'
F432
sS'smooth'
p16
I01
sS'y'
F1438
s(dp17
g14
S'line'
p18
sS'x'
F96
sg16
I01
sS'y'
F1438
s(dp19
S'y'
F1438
sS'x'
F83
sg16
I00
s(dp20
S'y'
F1438
sS'x'
F73
sg16
I00
s(dp21
g14
S'curve'
p22
sS'x'
F73
sg16
I01
sS'y'
F1411
s(dp23
g14
S'line'
p24
sS'x'
F73
sg16
I01
sS'y'
F1403
s(dp25
S'y'
F1378
sS'x'
F73
sg16
I00
s(dp26
S'y'
F1378
sS'x'
F83
sg16
I00
s(dp27
g14
S'curve'
p28
sS'x'
F96
sg16
I01
sS'y'
F1378
s(dp29
g14
S'line'
p30
sS'x'
F363
sg16
I01
sS'y'
F1378
s(dp31
S'y'
F1378
sS'x'
F371
sg16
I00
s(dp32
S'y'
F1380
sS'x'
F377
sg16
I00
s(dp33
g14
S'curve'
p34
sS'x'
F377
sg16
I01
sS'y'
F1360
s(dp35
g14
S'line'
p36
sS'x'
F377
sg16
I01
sS'y'
F47
s(dp37
S'y'
F4
sS'x'
F377
sg16
I00
s(dp38
S'y'
F0
sS'x'
F385
sg16
I00
s(dp39
g14
S'curve'
p40
sS'x'
F400
sg16
I01
sS'y'
F0
s(dp41
g14
S'line'
p42
sS'x'
F432
sg16
I01
sS'y'
F0
s(dp43
S'y'
F0
sS'x'
F446
sg16
I00
s(dp44
S'y'
F4
sS'x'
F454
sg16
I00
s(dp45
g14
S'curve'
p46
sS'x'
F454
sg16
I01
sS'y'
F47
s(dp47
g14
S'line'
p48
sS'x'
F454
sg16
I01
sS'y'
F1391
s(dp49
S'y'
F1434
sS'x'
F454
sg16
I00
s(dp50
S'y'
F1438
sS'x'
F446
sg16
I00
stp51
stp52
sS'components'
p53
(tsS'anchors'
p54
(tsss."
LayerCount: 2
Fore
SplineSet
110 0 m 2
 540 0 l 2
 553 0 562 0 562 27 c 2
 562 33 l 2
 562 60 553 60 540 60 c 2
 187 60 l 2
 181 60 180 66 180 74 c 0
 180 82 182 92 185 102 c 2
 543 1326 l 2
 547 1340 555 1363 555 1406 c 2
 555 1411 l 2
 555 1438 546 1438 532 1438 c 2
 114 1438 l 2
 99 1438 91 1438 91 1411 c 2
 91 1405 l 2
 91 1378 99 1378 114 1378 c 2
 459 1378 l 2
 467 1378 471 1369 471 1358 c 0
 471 1348 468 1337 465 1326 c 2
 94 69 l 2
 90 55 88 54 88 30 c 2
 88 27 l 2
 88 0 96 0 110 0 c 2
EndSplineSet
EndChar

StartChar: a
Encoding: 97 97 33
Width: 717
VWidth: 0
Flags: HW
PickledData: "(dp1
S'com.typemytype.robofont.layerData'
p2
(dp3
S'b'
(dp4
S'name'
p5
S'a'
sS'lib'
p6
(dp7
sS'unicodes'
p8
(tsS'width'
p9
I676
sS'contours'
p10
((dp11
S'points'
p12
((dp13
S'segmentType'
p14
S'curve'
p15
sS'x'
F350
sS'smooth'
p16
I01
sS'y'
F42
s(dp17
S'y'
F42
sS'x'
F262
sg16
I00
s(dp18
S'y'
F126
sS'x'
F190
sg16
I00
s(dp19
g14
S'curve'
p20
sS'x'
F190
sg16
I01
sS'y'
F514
s(dp21
S'y'
F926
sS'x'
F190
sg16
I00
s(dp22
S'y'
F990
sS'x'
F267
sg16
I00
s(dp23
g14
S'curve'
p24
sS'x'
F350
sg16
I01
sS'y'
F990
s(dp25
S'y'
F990
sS'x'
F430
sg16
I00
s(dp26
S'y'
F928
sS'x'
F509
sg16
I00
s(dp27
g14
S'curve'
p28
sS'x'
F509
sg16
I01
sS'y'
F514
s(dp29
S'y'
F123
sS'x'
F509
sg16
I00
s(dp30
S'y'
F42
sS'x'
F436
sg16
I00
stp31
s(dp32
g12
((dp33
g14
S'curve'
p34
sS'x'
F351
sg16
I01
sS'y'
F-20
s(dp35
S'y'
F-20
sS'x'
F461
sg16
I00
s(dp36
S'y'
F77
sS'x'
F586
sg16
I00
s(dp37
g14
S'curve'
p38
sS'x'
F586
sg16
I01
sS'y'
F514
s(dp39
S'y'
F962
sS'x'
F586
sg16
I00
s(dp40
S'y'
F1052
sS'x'
F471
sg16
I00
s(dp41
g14
S'curve'
p42
sS'x'
F351
sg16
I01
sS'y'
F1052
s(dp43
S'y'
F1052
sS'x'
F229
sg16
I00
s(dp44
S'y'
F962
sS'x'
F112
sg16
I00
s(dp45
g14
S'curve'
p46
sS'x'
F112
sg16
I01
sS'y'
F514
s(dp47
S'y'
F76
sS'x'
F112
sg16
I00
s(dp48
S'y'
F-20
sS'x'
F239
sg16
I00
stp49
stp50
sS'components'
p51
(tsS'anchors'
p52
(tsss."
HStem: -21 64<206.574 382.663> 990 62<245.8 460.365>
VStem: 78 79<86.7808 388.282 765.105 911.413> 544.642 79<241.633 550.968 601.986 608 631 911.028> 576.642 47<31.2402 52 224 251.995>
LayerCount: 2
Fore
SplineSet
288.4612 43 m 0
 185.09 43 158.1236 131 157 251 c 0
 156 383 244.6408 500 469.3608 540 c 0
 471.608 541 540.1476 551 541.2712 551 c 0
 546.642 551 546.642 507 546.642 493 c 0
 546.642 245 428.9112 43 288.4612 43 c 0
557.642 252 m 0
 576.717216133 252 558.512358891 -12 599.642 -12 c 2
 605.642 -12 l 2
 617.642 -12 623.642 2 623.642 37 c 2
 623.642 631 l 2
 623.642 929 573.642 1052 351.3828 1052 c 0
 196.326 1052 131 966 93 858 c 0
 89 847 82 820 82 802 c 0
 82 770.484268948 94.6708358261 765.469116767 113 759 c 0
 116 758 117 757 119 757 c 0
 127 757 138 789 145 811 c 0
 178.3484 904 231.1576 990 352.5064 990 c 0
 540.1476 990 544.642 823 544.642 668 c 2
 544.642 608 l 1
 477.226 593 78 584 78 238 c 0
 78 92 141 -21 288.4612 -21 c 0
 397.4504 -21 501.9452 62 553.642 238 c 0
 555.642 245 556.642 252 557.642 252 c 0
EndSplineSet
EndChar

StartChar: acute
Encoding: 180 180 34
Width: 595
VWidth: 0
Flags: HW
VStem: 367 113<1317.75 1435.01> 367 47<1193.41 1232.35>
LayerCount: 2
Fore
SplineSet
382 1166 m 2
 394 1166 l 2
 408 1166 411 1188 414 1205 c 2
 476 1533 l 2
 478 1545 480 1559 480 1570 c 0
 480 1586 477 1598 470 1598 c 2
 415 1598 l 2
 399 1598 392 1586 389 1543 c 2
 368 1233 l 2
 367 1219 367 1207 367 1198 c 0
 367 1171 372 1166 382 1166 c 2
EndSplineSet
EndChar

StartChar: asterisk
Encoding: 42 42 36
Width: 538
VWidth: 0
Flags: HW
LayerCount: 2
Fore
SplineSet
174 295 m 0
 186 295 196 316 201 346 c 2
 267.2924 695 l 1
 334.7084 346 l 1
 338.7084 316 350.7084 295 362.7084 295 c 0
 379.7084 295 395.7084 339 395.7084 389 c 0
 395.7084 467 313.36 685 294.2588 741 c 1
 428.7084 824 l 2
 442.7084 833 453.7084 869 453.7084 911 c 0
 453.7084 961 439.7084 1009 422.7084 1009 c 0
 401.7084 1009 307.742 853 283.0228 820 c 1
 288.6408 946 303.2476 1095 303.2476 1221 c 0
 303.2476 1271 286.3936 1309 268.416 1309 c 0
 250.4384 1309 232.4608 1276 232.4608 1226 c 0
 232.4608 1098 244.8204 948 252.6856 820 c 1
 227.9664 853 134 1009 114 1009 c 0
 96 1009 82 961 82 911 c 0
 82 869 93 833 107 824 c 2
 241.4496 741 l 1
 222.3484 685 141 467 141 389 c 0
 141 339 158 295 174 295 c 0
EndSplineSet
EndChar

StartChar: b
Encoding: 98 98 37
Width: 701
VWidth: 0
Flags: HW
PickledData: "(dp1
S'com.typemytype.robofont.layerData'
p2
(dp3
S'b'
(dp4
S'name'
p5
S'b'
sS'lib'
p6
(dp7
sS'unicodes'
p8
(tsS'width'
p9
I662
sS'contours'
p10
((dp11
S'points'
p12
((dp13
S'segmentType'
p14
S'curve'
p15
sS'x'
F354
sS'smooth'
p16
I01
sS'y'
F-20
s(dp17
S'y'
F-20
sS'x'
F464
sg16
I00
s(dp18
S'y'
F77
sS'x'
F589
sg16
I00
s(dp19
g14
S'curve'
p20
sS'x'
F589
sg16
I01
sS'y'
F514
s(dp21
S'y'
F962
sS'x'
F589
sg16
I00
s(dp22
S'y'
F1052
sS'x'
F474
sg16
I00
s(dp23
g14
S'curve'
p24
sS'x'
F354
sg16
I01
sS'y'
F1052
s(dp25
S'y'
F1052
sS'x'
F232
sg16
I00
s(dp26
S'y'
F962
sS'x'
F115
sg16
I00
s(dp27
g14
S'curve'
p28
sS'x'
F115
sg16
I01
sS'y'
F514
s(dp29
S'y'
F76
sS'x'
F115
sg16
I00
s(dp30
S'y'
F-20
sS'x'
F242
sg16
I00
stp31
s(dp32
g12
((dp33
g14
S'curve'
p34
sS'x'
F353
sg16
I01
sS'y'
F42
s(dp35
S'y'
F42
sS'x'
F265
sg16
I00
s(dp36
S'y'
F126
sS'x'
F193
sg16
I00
s(dp37
g14
S'curve'
p38
sS'x'
F193
sg16
I01
sS'y'
F514
s(dp39
S'y'
F926
sS'x'
F193
sg16
I00
s(dp40
S'y'
F990
sS'x'
F270
sg16
I00
s(dp41
g14
S'curve'
p42
sS'x'
F353
sg16
I01
sS'y'
F990
s(dp43
S'y'
F990
sS'x'
F433
sg16
I00
s(dp44
S'y'
F928
sS'x'
F512
sg16
I00
s(dp45
g14
S'curve'
p46
sS'x'
F512
sg16
I01
sS'y'
F514
s(dp47
S'y'
F123
sS'x'
F512
sg16
I00
s(dp48
S'y'
F42
sS'x'
F439
sg16
I00
stp49
stp50
sS'components'
p51
(tsS'anchors'
p52
(tsss."
LayerCount: 2
Fore
SplineSet
359.776 43 m 0
 260.8992 43 180 247 180 504 c 0
 180 784 277.7532 990 371.012 990 c 0
 462.0236 990 538.4284 849 538.4284 504 c 0
 538.4284 198 456.4056 43 359.776 43 c 0
372.1356 -21 m 0
 483.372 -21 615.4284 107 615.4284 504 c 0
 615.4284 912 504.7204 1052 383.3716 1052 c 0
 305.8432 1052 224.944 989 183.3708 857 c 1
 183.3708 857 182.2472 853 181.1236 853 c 1
 181.1236 853 180 854 180 861 c 2
 180 1371 l 2
 180 1414 172 1438 157 1438 c 2
 125 1438 l 2
 111 1438 103 1414 103 1371 c 2
 103 53 l 2
 103 10 107 0 121 0 c 2
 125 0 l 2
 152.769495945 0 154.142022307 139.471459741 165 201 c 0
 166 210 167 212 167 212 c 2
 168 212 169 209 170 207 c 0
 213.708 43 294.6072 -21 372.1356 -21 c 0
EndSplineSet
EndChar

StartChar: backslash
Encoding: 92 92 38
Width: 456
VWidth: 0
Flags: HW
LayerCount: 2
Fore
SplineSet
318 -205 m 2
 374 -205 l 2
 379 -205 384 -187 381 -170 c 2
 148 1612 l 2
 145 1633 139 1647 132 1647 c 2
 75 1647 l 2
 69 1647 66 1629 68 1612 c 2
 301 -170 l 2
 304 -191 312 -205 318 -205 c 2
EndSplineSet
EndChar

StartChar: bar
Encoding: 124 124 39
Width: 278
VWidth: 0
Flags: HW
LayerCount: 2
Fore
SplineSet
131 -150 m 2
 148 -150 l 2
 163 -150 174 -136 174 -93 c 2
 174 1498 l 2
 174 1541 163 1555 148 1555 c 2
 131 1555 l 2
 115 1555 103 1541 103 1498 c 2
 103 -93 l 2
 103 -136 115 -150 131 -150 c 2
EndSplineSet
EndChar

StartChar: braceleft
Encoding: 123 123 40
Width: 499
VWidth: 0
Flags: HW
LayerCount: 2
Fore
SplineSet
290 -123 m 2
 382 -123 l 2
 397 -123 409 -88 409 -46 c 2
 409 64 l 2
 409 116 399 147 381 158 c 0
 294 214 370 572 288 695 c 0
 283 702 283 718 288 725 c 0
 370 848 294 1206 381 1262 c 0
 399 1273 409 1304 409 1356 c 2
 409 1466 l 2
 409 1508 397 1543 382 1543 c 2
 290 1543 l 2
 128 1543 207 942 108 857 c 0
 90 841 82 812 82 756 c 2
 82 664 l 2
 82 608 90 579 108 563 c 0
 207 478 128 -123 290 -123 c 2
EndSplineSet
EndChar

StartChar: braceright
Encoding: 125 125 41
Width: 503
VWidth: 0
Flags: HW
LayerCount: 2
Fore
SplineSet
118 -123 m 2
 211 -123 l 2
 373 -123 292 478 391 563 c 0
 410 579 419 608 419 664 c 2
 419 756 l 2
 419 812 410 841 391 857 c 0
 292 942 373 1543 211 1543 c 2
 118 1543 l 2
 104 1543 92 1508 92 1466 c 2
 92 1356 l 2
 92 1304 101 1273 118 1262 c 0
 205 1206 131 848 213 725 c 0
 217 718 217 702 213 695 c 0
 131 572 205 214 118 158 c 0
 101 147 92 116 92 64 c 2
 92 -46 l 2
 92 -88 104 -123 118 -123 c 2
EndSplineSet
EndChar

StartChar: bracketleft
Encoding: 91 91 42
Width: 433
VWidth: 0
Flags: HW
LayerCount: 2
Fore
SplineSet
130 -65 m 2
 325 -65 l 2
 339 -65 347 -51 347 -8 c 2
 347 41 l 2
 347 84 339 98 325 98 c 2
 190 98 l 2
 183 98 181 105 181 125 c 2
 181 1317 l 2
 181 1337 183 1344 190 1344 c 2
 325 1344 l 2
 339 1344 347 1358 347 1401 c 2
 347 1460 l 2
 347 1503 339 1517 325 1517 c 2
 130 1517 l 2
 114 1517 103 1483 103 1440 c 2
 103 12 l 2
 103 -31 114 -65 130 -65 c 2
EndSplineSet
EndChar

StartChar: bracketright
Encoding: 93 93 43
Width: 434
VWidth: 0
Flags: HW
LayerCount: 2
Fore
SplineSet
111 -65 m 2
 306 -65 l 2
 320 -65 331 -31 331 12 c 2
 331 1440 l 2
 331 1483 320 1517 306 1517 c 2
 111 1517 l 2
 96 1517 88 1503 88 1460 c 2
 88 1411 l 2
 88 1368 96 1354 111 1354 c 2
 244 1354 l 2
 251 1354 253 1347 253 1327 c 2
 253 135 l 2
 253 115 251 108 244 108 c 2
 111 108 l 2
 96 108 88 94 88 51 c 2
 88 -8 l 2
 88 -51 96 -65 111 -65 c 2
EndSplineSet
EndChar

StartChar: c
Encoding: 99 99 44
Width: 614
VWidth: 0
Flags: HW
PickledData: "(dp1
S'com.typemytype.robofont.layerData'
p2
(dp3
S'b'
(dp4
S'name'
p5
S'c'
sS'lib'
p6
(dp7
sS'unicodes'
p8
(tsS'width'
p9
I614
sS'contours'
p10
((dp11
S'points'
p12
((dp13
S'segmentType'
p14
S'curve'
p15
sS'x'
F338
sS'smooth'
p16
I01
sS'y'
F-41
s(dp17
S'y'
F-41
sS'x'
F386
sg16
I00
s(dp18
S'y'
F1
sS'x'
F449
sg16
I00
s(dp19
g14
S'curve'
p20
sS'x'
F493
sg16
I01
sS'y'
F62
s(dp21
S'y'
F83
sS'x'
F507
sg16
I00
s(dp22
S'y'
F108
sS'x'
F508
sg16
I00
s(dp23
g14
S'curve'
p24
sS'x'
F506
sg16
I01
sS'y'
F135
s(dp25
S'y'
F163
sS'x'
F503
sg16
I00
s(dp26
S'y'
F194
sS'x'
F499
sg16
I00
s(dp27
g14
S'curve'
p28
sS'x'
F498
sg16
I00
sS'y'
F201
s(dp29
S'y'
F221
sS'x'
F497
sg16
I00
s(dp30
S'y'
F230
sS'x'
F487
sg16
I00
s(dp31
g14
S'curve'
p32
sS'x'
F473
sg16
I01
sS'y'
F211
s(dp33
S'y'
F180
sS'x'
F450
sg16
I00
s(dp34
S'y'
F21
sS'x'
F400
sg16
I00
s(dp35
g14
S'curve'
p36
sS'x'
F343
sg16
I01
sS'y'
F21
s(dp37
S'y'
F21
sS'x'
F248
sg16
I00
s(dp38
S'y'
F116
sS'x'
F161
sg16
I00
s(dp39
g14
S'curve'
p40
sS'x'
F161
sg16
I01
sS'y'
F504
s(dp41
S'y'
F906
sS'x'
F161
sg16
I00
s(dp42
S'y'
F989
sS'x'
F255
sg16
I00
s(dp43
g14
S'curve'
p44
sS'x'
F337
sg16
I01
sS'y'
F989
s(dp45
S'y'
F989
sS'x'
F407
sg16
I00
s(dp46
S'y'
F841
sS'x'
F453
sg16
I00
s(dp47
g14
S'curve'
p48
sS'x'
F481
sg16
I01
sS'y'
F797
s(dp49
S'y'
F784
sS'x'
F489
sg16
I00
s(dp50
S'y'
F762
sS'x'
F499
sg16
I00
s(dp51
g14
S'curve'
p52
sS'x'
F506
sg16
I01
sS'y'
F805
s(dp53
g14
S'line'
p54
sS'x'
F516
sg16
I01
sS'y'
F871
s(dp55
S'y'
F893
sS'x'
F519
sg16
I00
s(dp56
S'y'
F913
sS'x'
F518
sg16
I00
s(dp57
g14
S'curve'
p58
sS'x'
F507
sg16
I01
sS'y'
F932
s(dp59
S'y'
F1015
sS'x'
F461
sg16
I00
s(dp60
S'y'
F1052
sS'x'
F393
sg16
I00
s(dp61
g14
S'curve'
p62
sS'x'
F338
sg16
I01
sS'y'
F1052
s(dp63
S'y'
F1052
sS'x'
F226
sg16
I00
s(dp64
S'y'
F952
sS'x'
F83
sg16
I00
s(dp65
g14
S'curve'
p66
sS'x'
F83
sg16
I01
sS'y'
F504
s(dp67
S'y'
F66
sS'x'
F83
sg16
I00
s(dp68
S'y'
F-41
sS'x'
F227
sg16
I00
stp69
stp70
sS'components'
p71
(tsS'anchors'
p72
(tsss."
HStem: -20 63<257.794 446.401> 989 63<257.382 446.305>
VStem: 84 78<180.104 850.823>
LayerCount: 2
Fore
SplineSet
339 -20 m 0
 375 -19 417 -12 448 2 c 1
 457 13 l 1
 457 52 l 1
 448 62 l 1
 414 50 373 43 344 43 c 0
 249 43 162 111 162 514 c 0
 162 943 256 984 338 989 c 0
 370 991 413 983 448 973 c 1
 455 983 l 1
 455 1023 l 1
 448 1034 l 1
 412 1048 365 1052 339 1052 c 0
 227 1052 84 991 84 514 c 0
 84 43 228 -22 339 -20 c 0
EndSplineSet
EndChar

StartChar: caron
Encoding: 711 711 45
Width: 291
VWidth: 0
Flags: HW
LayerCount: 2
Fore
SplineSet
128 1217 m 2
 158 1217 l 2
 174 1217 192 1237 203 1269 c 2
 258 1424 l 2
 260 1430 263 1439 263 1446 c 0
 263 1462 257 1476 252 1476 c 2
 241 1476 l 2
 224 1476 204 1461 192 1438 c 1
 153 1370 l 2
 150 1364 147 1362 143 1362 c 0
 139 1362 135 1364 132 1370 c 2
 95 1438 l 2
 82 1462 61 1476 46 1476 c 2
 34 1476 l 2
 28 1476 24 1462 24 1446 c 0
 24 1439 26 1430 28 1424 c 2
 84 1269 l 2
 95 1237 113 1217 128 1217 c 2
EndSplineSet
EndChar

StartChar: cedilla
Encoding: 184 184 47
Width: 245
VWidth: 0
Flags: HW
HStem: -642 85<117.796 159.004> -254 98<119 124 137 155.805>
VStem: 68 46<-553.141 -409.843> 165 47<-555.762 -256.902>
LayerCount: 2
Fore
SplineSet
85 -373 m 2
 68.34057961 -373 68 -442.941429782 68 -464 c 0
 68 -572 98 -642 137 -642 c 0
 186 -642 212 -548 212 -370 c 0
 212 -259 186 -156 149 -156 c 2
 124 -156 l 2
 120 -156 119 -163 119 -173 c 2
 119 -244 l 2
 119 -255 124 -254 124 -254 c 1
 137 -254 l 2
 155 -254 165 -331 165 -407 c 0
 165 -517 156 -557 141 -557 c 0
 123 -557 114 -514 114 -461 c 0
 114 -441.80926595 124.138964365 -373 107 -373 c 2
 85 -373 l 2
EndSplineSet
EndChar

StartChar: circumflex
Encoding: 710 710 48
Width: 291
VWidth: 0
Flags: HW
LayerCount: 2
Fore
SplineSet
34 1217 m 2
 46 1217 l 2
 61 1217 82 1231 95 1255 c 2
 133 1323 l 2
 136 1329 139 1331 144 1331 c 0
 147 1331 151 1329 154 1323 c 2
 192 1255 l 2
 205 1231 224 1217 241 1217 c 2
 252 1217 l 2
 257 1217 263 1231 263 1247 c 0
 263 1254 261 1263 258 1269 c 2
 203 1424 l 2
 192 1456 174 1476 158 1476 c 2
 128 1476 l 2
 113 1476 95 1456 84 1424 c 2
 27 1269 l 2
 25 1263 24 1254 24 1247 c 0
 24 1231 28 1217 34 1217 c 2
EndSplineSet
EndChar

StartChar: colon
Encoding: 58 58 49
Width: 291
VWidth: 0
Flags: HW
LayerCount: 2
Fore
SplineSet
122 754 m 2
 169 754 l 2
 184 754 195 788 195 831 c 2
 195 975 l 2
 195 1018 184 1052 169 1052 c 2
 122 1052 l 2
 108 1052 96 1018 96 975 c 2
 96 831 l 2
 96 788 108 754 122 754 c 2
122 0 m 2
 169 0 l 2
 184 0 195 34 195 77 c 2
 195 221 l 2
 195 264 184 298 169 298 c 2
 122 298 l 2
 108 298 96 264 96 221 c 2
 96 77 l 2
 96 34 108 0 122 0 c 2
EndSplineSet
EndChar

StartChar: comma
Encoding: 44 44 50
Width: 289
VWidth: 0
Flags: HW
LayerCount: 2
Fore
SplineSet
109 -301 m 0
 157 -278 202 -142 202 95 c 2
 202 240 l 2
 202 283 190 317 175 317 c 2
 108 317 l 2
 93 317 87 296 87 253 c 2
 87 50 l 2
 87 12 95 0 108 0 c 2
 136 0 l 2
 142 0 142 -11 142 -27 c 0
 142 -51 131 -128 108 -171 c 0
 93 -198 87 -192 87 -246 c 2
 87 -256 l 2
 87 -292 97 -307 109 -301 c 0
EndSplineSet
EndChar

StartChar: d
Encoding: 100 100 51
Width: 701
VWidth: 0
Flags: HW
PickledData: "(dp1
S'com.typemytype.robofont.layerData'
p2
(dp3
S'b'
(dp4
S'name'
p5
S'd'
sS'lib'
p6
(dp7
sS'unicodes'
p8
(tsS'width'
p9
I662
sS'contours'
p10
((dp11
S'points'
p12
((dp13
S'segmentType'
p14
S'curve'
p15
sS'x'
F323
sS'smooth'
p16
I01
sS'y'
F-41
s(dp17
S'y'
F-41
sS'x'
F433
sg16
I00
s(dp18
S'y'
F67
sS'x'
F558
sg16
I00
s(dp19
g14
S'curve'
p20
sS'x'
F558
sg16
I01
sS'y'
F504
s(dp21
S'y'
F952
sS'x'
F558
sg16
I00
s(dp22
S'y'
F1052
sS'x'
F443
sg16
I00
s(dp23
g14
S'curve'
p24
sS'x'
F323
sg16
I01
sS'y'
F1052
s(dp25
S'y'
F1052
sS'x'
F201
sg16
I00
s(dp26
S'y'
F952
sS'x'
F84
sg16
I00
s(dp27
g14
S'curve'
p28
sS'x'
F84
sg16
I01
sS'y'
F504
s(dp29
S'y'
F66
sS'x'
F84
sg16
I00
s(dp30
S'y'
F-41
sS'x'
F211
sg16
I00
stp31
s(dp32
g12
((dp33
g14
S'curve'
p34
sS'x'
F322
sg16
I01
sS'y'
F21
s(dp35
S'y'
F21
sS'x'
F234
sg16
I00
s(dp36
S'y'
F116
sS'x'
F162
sg16
I00
s(dp37
g14
S'curve'
p38
sS'x'
F162
sg16
I01
sS'y'
F504
s(dp39
S'y'
F916
sS'x'
F162
sg16
I00
s(dp40
S'y'
F990
sS'x'
F239
sg16
I00
s(dp41
g14
S'curve'
p42
sS'x'
F322
sg16
I01
sS'y'
F990
s(dp43
S'y'
F990
sS'x'
F402
sg16
I00
s(dp44
S'y'
F918
sS'x'
F481
sg16
I00
s(dp45
g14
S'curve'
p46
sS'x'
F481
sg16
I01
sS'y'
F504
s(dp47
S'y'
F113
sS'x'
F481
sg16
I00
s(dp48
S'y'
F21
sS'x'
F408
sg16
I00
stp49
stp50
sS'components'
p51
(tsS'anchors'
p52
(tsss."
LayerCount: 2
Fore
SplineSet
342.6524 41 m 0
 235.9104 37 164 141 164 504 c 0
 164 891 247.1464 999 342.6524 990 c 0
 434.7876 981 521.3048 786 521.3048 504 c 0
 521.3048 246 441.5292 45 342.6524 41 c 0
535.3048 220 m 1
 541.185225773 184.717445359 551.996727855 0 576.3048 0 c 2
 581.3048 0 l 2
 596.3048 0 599.3048 24 599.3048 67 c 2
 599.3048 1371 l 2
 599.3048 1414 590.3048 1438 576.3048 1438 c 2
 545.3048 1438 l 2
 529.3048 1438 521.3048 1414 521.3048 1371 c 0
 521.3048 1196.33333333 521.3048 1021.66666667 521.3048 847 c 1
 520.1812 852 520.1812 856 516.8104 860 c 1
 475.2372 990 406.6976 1052 331.4164 1052 c 0
 196.5844 1052 86 955 86 504 c 0
 86 42 216.8092 -21 329.1692 -21 c 0
 426.9224 -21 487.5968 42 531.3048 203 c 0
 532.3048 209 534.3048 214 535.3048 220 c 1
EndSplineSet
EndChar

StartChar: dieresis
Encoding: 168 168 52
Width: 254
VWidth: 0
Flags: HW
VStem: 73 97<0 77 173 250> 292.472 94<0 77 173 250>
LayerCount: 2
Fore
SplineSet
317.4724 0 m 2
 360.4724 0 l 2
 375.4724 0 386.4724 34 386.4724 77 c 2
 386.4724 173 l 2
 386.4724 216 375.4724 250 360.4724 250 c 2
 317.4724 250 l 2
 303.4724 250 292.4724 216 292.4724 173 c 2
 292.4724 77 l 2
 292.4724 34 303.4724 0 317.4724 0 c 2
100 0 m 2
 143 0 l 2
 158 0 170 34 170 77 c 2
 170 173 l 2
 170 216 158 250 143 250 c 2
 100 250 l 2
 85 250 73 216 73 173 c 2
 73 77 l 2
 73 34 85 0 100 0 c 2
EndSplineSet
EndChar

StartChar: e
Encoding: 101 101 54
Width: 672
VWidth: 0
Flags: HW
PickledData: "(dp1
S'com.typemytype.robofont.layerData'
p2
(dp3
S'b'
(dp4
S'name'
p5
S'e'
sS'lib'
p6
(dp7
sS'unicodes'
p8
(tsS'width'
p9
I634
sS'contours'
p10
((dp11
S'points'
p12
((dp13
S'segmentType'
p14
S'curve'
p15
sS'x'
F323
sS'smooth'
p16
I01
sS'y'
F-41
s(dp17
S'y'
F-41
sS'x'
F433
sg16
I00
s(dp18
S'y'
F67
sS'x'
F558
sg16
I00
s(dp19
g14
S'curve'
p20
sS'x'
F558
sg16
I01
sS'y'
F504
s(dp21
S'y'
F952
sS'x'
F558
sg16
I00
s(dp22
S'y'
F1052
sS'x'
F443
sg16
I00
s(dp23
g14
S'curve'
p24
sS'x'
F323
sg16
I01
sS'y'
F1052
s(dp25
S'y'
F1052
sS'x'
F201
sg16
I00
s(dp26
S'y'
F952
sS'x'
F84
sg16
I00
s(dp27
g14
S'curve'
p28
sS'x'
F84
sg16
I01
sS'y'
F504
s(dp29
S'y'
F66
sS'x'
F84
sg16
I00
s(dp30
S'y'
F-41
sS'x'
F211
sg16
I00
stp31
s(dp32
g12
((dp33
g14
S'curve'
p34
sS'x'
F322
sg16
I01
sS'y'
F21
s(dp35
S'y'
F21
sS'x'
F234
sg16
I00
s(dp36
S'y'
F116
sS'x'
F162
sg16
I00
s(dp37
g14
S'curve'
p38
sS'x'
F162
sg16
I01
sS'y'
F504
s(dp39
S'y'
F916
sS'x'
F162
sg16
I00
s(dp40
S'y'
F990
sS'x'
F239
sg16
I00
s(dp41
g14
S'curve'
p42
sS'x'
F322
sg16
I01
sS'y'
F990
s(dp43
S'y'
F990
sS'x'
F402
sg16
I00
s(dp44
S'y'
F918
sS'x'
F481
sg16
I00
s(dp45
g14
S'curve'
p46
sS'x'
F481
sg16
I01
sS'y'
F504
s(dp47
S'y'
F113
sS'x'
F481
sg16
I00
s(dp48
S'y'
F21
sS'x'
F408
sg16
I00
stp49
stp50
sS'components'
p51
(tsS'anchors'
p52
(tsss."
HStem: -21 64<278.827 446.977> 990 62<273.627 416.833>
VStem: 84 80<202.938 833.733> 519.058 65<247 292.852 539.729 813.212>
LayerCount: 2
Fore
SplineSet
168.4944 539 m 2
 166.2472 539 166.2472 598 166.2472 602 c 0
 188.7192 906 264.0004 990 344.8996 990 c 0
 467.372 990 510.0688 802 519.0576 541 c 1
 519.0576 539 l 1
 168.4944 539 l 2
353.8884 -21 m 0
 504.4508 -21 572.0576 111 572.0576 247 c 2
 572.0576 280 l 2
 572.0576 290 567.0576 293 562.0576 293 c 2
 523.0576 293 l 2
 521.0576 293 519.0576 282 517.934 275 c 0
 511.1924 191 494.3384 43 359.5064 43 c 0
 201.0788 43 165.1236 317 164 477 c 0
 164 485 166.2472 487 169.618 487 c 2
 539.0576 487 l 2
 578.0576 487 584.0576 530 584.0576 565 c 2
 584.0576 607 l 1
 571.0576 861 508.9452 1052 346.0232 1052 c 0
 220.18 1052 84 932 84 504 c 0
 84 106 205.5732 -21 353.8884 -21 c 0
EndSplineSet
EndChar

StartChar: eight
Encoding: 56 56 56
Width: 794
VWidth: 0
Flags: HW
LayerCount: 2
Fore
SplineSet
531.7992 761 m 1
 200.3372 857 201.4608 832 201.4608 1029 c 0
 201.4608 1271 256.5172 1297 396.9672 1297 c 0
 523.934 1297 592.4736 1295 592.4736 1025 c 0
 592.4736 887 554.2712 812 531.7992 761 c 1
396.9672 135 m 0
 248.652 135 170 135 170 403 c 0
 170 498 192.472 613 243.034 687 c 1
 546.406 588 622.8108 634 622.8108 403 c 0
 622.8108 135 546.406 135 396.9672 135 c 0
396.9672 -41 m 0
 574.496 -41 701.8108 -35 701.8108 387 c 0
 701.8108 545 653.8108 663 593.5972 699 c 1
 633.8108 737 667.8108 879 667.8108 1029 c 0
 667.8108 1411 574.496 1473 396.9672 1473 c 0
 221.6856 1473 120 1398 120 1059 c 0
 120 909 155 795 182.3596 752 c 1
 139 695 93 561 93 403 c 0
 93 -42 221.6856 -41 396.9672 -41 c 0
EndSplineSet
EndChar

StartChar: equal
Encoding: 61 61 57
Width: 397
VWidth: 0
Flags: HW
LayerCount: 2
Fore
SplineSet
104 617 m 2
 289 617 l 2
 304 617 309 631 309 674 c 2
 309 718 l 2
 309 761 304 775 289 775 c 2
 104 775 l 2
 89 775 85 761 85 718 c 2
 85 674 l 2
 85 631 89 617 104 617 c 2
104 312 m 2
 289 312 l 2
 304 312 309 326 309 369 c 2
 309 413 l 2
 309 456 304 470 289 470 c 2
 104 470 l 2
 89 470 85 456 85 413 c 2
 85 369 l 2
 85 326 89 312 104 312 c 2
EndSplineSet
EndChar

StartChar: exclam
Encoding: 33 33 58
Width: 286
VWidth: 0
Flags: HW
LayerCount: 2
Fore
SplineSet
142 0 m 0
 181 0 189 72 189 119 c 0
 189 166 176 231 142 231 c 0
 111 231 98 170 98 119 c 0
 98 71 109 0 142 0 c 0
143 432 m 2
 144 432 l 2
 159 432 159 456 160 499 c 2
 182 1343 l 2
 183 1386 172 1438 158 1438 c 2
 127 1438 l 2
 111 1438 103 1414 104 1371 c 2
 127 499 l 2
 128 456 128 432 143 432 c 2
EndSplineSet
EndChar

StartChar: f
Encoding: 102 102 59
Width: 506
VWidth: 0
Flags: HW
PickledData: "(dp1
S'com.typemytype.robofont.layerData'
p2
(dp3
S'b'
(dp4
S'name'
p5
S'f'
sS'lib'
p6
(dp7
sS'unicodes'
p8
(tsS'width'
p9
I506
sS'contours'
p10
((dp11
S'points'
p12
((dp13
S'segmentType'
p14
S'curve'
p15
sS'x'
F431
sS'smooth'
p16
I01
sS'y'
F1430
s(dp17
S'y'
F1430
sS'x'
F375
sg16
I00
s(dp18
S'y'
F1430
sS'x'
F375
sg16
I00
s(dp19
g14
S'curve'
p20
sS'x'
F353
sg16
I01
sS'y'
F1430
s(dp21
S'y'
F1430
sS'x'
F335
sg16
I00
s(dp22
S'y'
F1425
sS'x'
F326
sg16
I00
s(dp23
g14
S'curve'
p24
sS'x'
F326
sg16
I01
sS'y'
F1409
s(dp25
g14
S'line'
p26
sS'x'
F326
sg16
I01
sS'y'
F1374
s(dp27
S'y'
F1362
sS'x'
F326
sg16
I00
s(dp28
S'y'
F1360
sS'x'
F342
sg16
I00
s(dp29
g14
S'curve'
p30
sS'x'
F355
sg16
I01
sS'y'
F1360
s(dp31
S'y'
F1360
sS'x'
F378
sg16
I00
s(dp32
S'y'
F1360
sS'x'
F385
sg16
I00
s(dp33
g14
S'curve'
p34
sS'x'
F419
sg16
I01
sS'y'
F1360
s(dp35
S'y'
F1360
sS'x'
F472
sg16
I00
s(dp36
S'y'
F1336
sS'x'
F513
sg16
I00
s(dp37
g14
S'curve'
p38
sS'x'
F513
sg16
I01
sS'y'
F1126
s(dp39
g14
S'line'
p40
sS'x'
F513
sg16
I01
sS'y'
F482
s(dp41
S'y'
F467
sS'x'
F513
sg16
I00
s(dp42
S'y'
F466
sS'x'
F511
sg16
I00
s(dp43
g14
S'curve'
p44
sS'x'
F503
sg16
I01
sS'y'
F466
s(dp45
g14
S'line'
p46
sS'x'
F372
sg16
I01
sS'y'
F466
s(dp47
S'y'
F466
sS'x'
F356
sg16
I00
s(dp48
S'y'
F465
sS'x'
F349
sg16
I00
s(dp49
g14
S'curve'
p50
sS'x'
F349
sg16
I01
sS'y'
F434
s(dp51
g14
S'line'
p52
sS'x'
F349
sg16
I01
sS'y'
F430
s(dp53
S'y'
F398
sS'x'
F349
sg16
I00
s(dp54
S'y'
F397
sS'x'
F356
sg16
I00
s(dp55
g14
S'curve'
p56
sS'x'
F372
sg16
I01
sS'y'
F397
s(dp57
g14
S'line'
p58
sS'x'
F503
sg16
I01
sS'y'
F397
s(dp59
S'y'
F397
sS'x'
F511
sg16
I00
s(dp60
S'y'
F390
sS'x'
F513
sg16
I00
s(dp61
g14
S'curve'
p62
sS'x'
F513
sg16
I01
sS'y'
F370
s(dp63
g14
S'line'
p64
sS'x'
F513
sg16
I01
sS'y'
F-25
s(dp65
S'y'
F-68
sS'x'
F513
sg16
I00
s(dp66
S'y'
F-72
sS'x'
F521
sg16
I00
s(dp67
g14
S'curve'
p68
sS'x'
F536
sg16
I01
sS'y'
F-72
s(dp69
g14
S'line'
p70
sS'x'
F554
sg16
I01
sS'y'
F-72
s(dp71
S'y'
F-72
sS'x'
F568
sg16
I00
s(dp72
S'y'
F-67
sS'x'
F575
sg16
I00
s(dp73
g14
S'curve'
p74
sS'x'
F576
sg16
I01
sS'y'
F-25
s(dp75
g14
S'line'
p76
sS'x'
F590
sg16
I00
sS'y'
F370
s(dp77
S'y'
F390
sS'x'
F590
sg16
I00
s(dp78
S'y'
F397
sS'x'
F594
sg16
I00
s(dp79
g14
S'curve'
p80
sS'x'
F600
sg16
I01
sS'y'
F397
s(dp81
g14
S'line'
p82
sS'x'
F668
sg16
I01
sS'y'
F397
s(dp83
S'y'
F397
sS'x'
F683
sg16
I00
s(dp84
S'y'
F398
sS'x'
F691
sg16
I00
s(dp85
g14
S'curve'
p86
sS'x'
F691
sg16
I01
sS'y'
F430
s(dp87
g14
S'line'
p88
sS'x'
F691
sg16
I01
sS'y'
F434
s(dp89
S'y'
F465
sS'x'
F691
sg16
I00
s(dp90
S'y'
F466
sS'x'
F683
sg16
I00
s(dp91
g14
S'curve'
p92
sS'x'
F668
sg16
I01
sS'y'
F466
s(dp93
g14
S'line'
p94
sS'x'
F600
sg16
I01
sS'y'
F466
s(dp95
S'y'
F466
sS'x'
F594
sg16
I00
s(dp96
S'y'
F467
sS'x'
F590
sg16
I00
s(dp97
g14
S'curve'
p98
sS'x'
F590
sg16
I01
sS'y'
F482
s(dp99
g14
S'line'
p100
sS'x'
F590
sg16
I01
sS'y'
F1130
s(dp101
S'y'
F1357
sS'x'
F590
sg16
I00
s(dp102
S'y'
F1430
sS'x'
F536
sg16
I00
stp103
stp104
sS'components'
p105
(tsS'anchors'
p106
(tsss."
LayerCount: 2
Fore
SplineSet
193 0 m 2
 219 0 l 2
 233 0 244 34 244 77 c 2
 244 915 l 2
 244 935 246 936 253 936 c 2
 389 936 l 2
 403 936 410 939 410 958 c 2
 410 987 l 2
 410 1005 403 1006 389 1006 c 2
 248 1006 l 2
 246 1006 244 1009 244 1012 c 2
 244 1090 l 2
 244 1313 256 1360 356 1360 c 2
 404 1360 l 2
 417 1360 417 1360 417 1392 c 2
 417 1406 l 2
 417 1434 407 1430 399 1430 c 2
 354 1430 l 2
 196 1430 167 1356 167 1034 c 0
 167 1012 167 1006 159 1006 c 2
 109 1006 l 2
 94 1006 85 1004 85 985 c 2
 85 958 l 2
 85 938 94 936 109 936 c 2
 159 936 l 2
 167 936 167 935 167 915 c 2
 167 77 l 2
 167 34 179 0 193 0 c 2
EndSplineSet
EndChar

StartChar: fraction
Encoding: 8260 8260 60
Width: 501
VWidth: 0
Flags: HW
LayerCount: 2
Fore
SplineSet
76 -205 m 2
 121 -205 l 2
 127 -205 135 -192 138 -172 c 2
 438 1614 l 2
 441 1629 437 1647 431 1647 c 2
 388 1647 l 2
 380 1647 372 1634 369 1614 c 2
 69 -172 l 2
 66 -187 71 -205 76 -205 c 2
EndSplineSet
EndChar

StartChar: g
Encoding: 103 103 61
Width: 606
VWidth: 0
Flags: HW
PickledData: "(dp1
S'com.typemytype.robofont.layerData'
p2
(dp3
S'b'
(dp4
S'name'
p5
S'g'
sS'lib'
p6
(dp7
sS'unicodes'
p8
(tsS'width'
p9
I569
sS'contours'
p10
((dp11
S'points'
p12
((dp13
S'segmentType'
p14
S'curve'
p15
sS'x'
F288
sS'smooth'
p16
I01
sS'y'
F-20
s(dp17
S'y'
F-20
sS'x'
F398
sg16
I00
s(dp18
S'y'
F77
sS'x'
F523
sg16
I00
s(dp19
g14
S'curve'
p20
sS'x'
F523
sg16
I01
sS'y'
F514
s(dp21
S'y'
F962
sS'x'
F523
sg16
I00
s(dp22
S'y'
F1052
sS'x'
F408
sg16
I00
s(dp23
g14
S'curve'
p24
sS'x'
F288
sg16
I01
sS'y'
F1052
s(dp25
S'y'
F1052
sS'x'
F166
sg16
I00
s(dp26
S'y'
F962
sS'x'
F49
sg16
I00
s(dp27
g14
S'curve'
p28
sS'x'
F49
sg16
I01
sS'y'
F514
s(dp29
S'y'
F76
sS'x'
F49
sg16
I00
s(dp30
S'y'
F-20
sS'x'
F176
sg16
I00
stp31
s(dp32
g12
((dp33
g14
S'curve'
p34
sS'x'
F287
sg16
I01
sS'y'
F42
s(dp35
S'y'
F42
sS'x'
F199
sg16
I00
s(dp36
S'y'
F126
sS'x'
F127
sg16
I00
s(dp37
g14
S'curve'
p38
sS'x'
F127
sg16
I01
sS'y'
F514
s(dp39
S'y'
F926
sS'x'
F127
sg16
I00
s(dp40
S'y'
F990
sS'x'
F204
sg16
I00
s(dp41
g14
S'curve'
p42
sS'x'
F287
sg16
I01
sS'y'
F990
s(dp43
S'y'
F990
sS'x'
F367
sg16
I00
s(dp44
S'y'
F928
sS'x'
F446
sg16
I00
s(dp45
g14
S'curve'
p46
sS'x'
F446
sg16
I01
sS'y'
F514
s(dp47
S'y'
F123
sS'x'
F446
sg16
I00
s(dp48
S'y'
F42
sS'x'
F373
sg16
I00
stp49
stp50
sS'components'
p51
(tsS'anchors'
p52
(tsss."
LayerCount: 2
Fore
SplineSet
330.7984 413 m 0
 197.09 413 165 553 165 709 c 0
 165 824 172.3708 990 304.9556 990 c 0
 443.1584 990 469.0012 827 469.0012 698 c 0
 469.0012 561 471.0012 413 330.7984 413 c 0
310.5736 -222 m 0
 195.9664 -222 169 -168 169 -97 c 0
 169 9 224.0564 111 258.888 111 c 2
 374.6188 111 l 2
 458.8888 111 519.5632 78 519.5632 -25 c 0
 519.5632 -158 469.0012 -222 310.5736 -222 c 0
324.0568 -282 m 0
 507.2036 -282 582.5632 -203 582.5632 -23 c 0
 582.5632 83 537.5632 170 381.3604 170 c 2
 257.7644 170 l 2
 188.1012 170 158 213 158 252 c 0
 158 316 188.1012 350 219.562 381 c 1
 248.7756 364 288.1016 354 333.0456 354 c 0
 508.3272 354 540.0012 512 540.0012 705 c 0
 540.0012 823 504.0012 947 438.664 999 c 0
 433.046 1003 429.6752 1010 429.6752 1019 c 0
 429.6752 1022 429.6752 1025 430.7988 1029 c 2
 498.0012 1303 l 2
 504.0012 1328 496.0012 1342 485.0012 1342 c 2
 451.0236 1342 l 2
 434.1696 1342 425.1808 1339 420.6864 1300 c 2
 391.4728 1060 l 2
 389.2256 1043 384.7312 1039 377.9896 1041 c 0
 361.1356 1046 339.7872 1052 318.4388 1052 c 0
 140 1052 92 889 92 705 c 0
 92 614 109 508 161 435 c 0
 164 432 165 427 165 422 c 0
 165 417 164 412 160 407 c 0
 127 363 101 337 101 242 c 0
 101 205 117 162 165 138 c 0
 171.2472 135 174.618 133 174.618 128 c 0
 174.618 124 172.3708 119 170.1236 115 c 0
 130 42 98 -57 98 -113 c 0
 98 -209 158 -282 324.0568 -282 c 0
EndSplineSet
EndChar

StartChar: grave
Encoding: 96 96 62
Width: 595
VWidth: 0
Flags: HW
LayerCount: 2
Fore
SplineSet
453 1166 m 2
 466 1166 l 2
 476 1166 480 1171 480 1198 c 0
 480 1207 480 1219 479 1233 c 2
 459 1543 l 1
 455 1586 449 1598 433 1598 c 2
 377 1598 l 2
 370 1598 367 1586 367 1570 c 0
 367 1559 369 1545 371 1533 c 2
 433 1205 l 2
 436 1188 439 1166 453 1166 c 2
EndSplineSet
EndChar

StartChar: greater
Encoding: 62 62 63
Width: 496
VWidth: 0
Flags: HW
LayerCount: 2
Fore
SplineSet
103 -23 m 0
 106 -23 111 -19 116 -11 c 2
 392 426 l 2
 406 448 415 483 415 522 c 2
 415 632 l 2
 415 672 406 717 392 738 c 2
 116 1139 l 2
 109 1148 105 1157 101 1157 c 0
 96 1157 93 1144 93 1119 c 2
 93 1035 l 2
 93 992 101 964 117 941 c 2
 355 596 l 2
 357 593 358 588 358 584 c 0
 358 579 358 574 356 571 c 2
 116 187 l 2
 101 163 93 146 93 103 c 2
 93 19 l 2
 93 -9 96 -23 103 -23 c 0
EndSplineSet
EndChar

StartChar: h
Encoding: 104 104 64
Width: 650
VWidth: 0
Flags: HW
PickledData: "(dp1
S'com.typemytype.robofont.layerData'
p2
(dp3
S'b'
(dp4
S'name'
p5
S'h'
sS'lib'
p6
(dp7
sS'unicodes'
p8
(tsS'width'
p9
I617
sS'contours'
p10
((dp11
S'points'
p12
((dp13
S'segmentType'
p14
S'curve'
p15
sS'x'
F350
sS'smooth'
p16
I01
sS'y'
F-20
s(dp17
S'y'
F-20
sS'x'
F460
sg16
I00
s(dp18
S'y'
F77
sS'x'
F585
sg16
I00
s(dp19
g14
S'curve'
p20
sS'x'
F585
sg16
I01
sS'y'
F514
s(dp21
S'y'
F962
sS'x'
F585
sg16
I00
s(dp22
S'y'
F1052
sS'x'
F470
sg16
I00
s(dp23
g14
S'curve'
p24
sS'x'
F350
sg16
I01
sS'y'
F1052
s(dp25
S'y'
F1052
sS'x'
F228
sg16
I00
s(dp26
S'y'
F962
sS'x'
F111
sg16
I00
s(dp27
g14
S'curve'
p28
sS'x'
F111
sg16
I01
sS'y'
F514
s(dp29
S'y'
F76
sS'x'
F111
sg16
I00
s(dp30
S'y'
F-20
sS'x'
F238
sg16
I00
stp31
s(dp32
g12
((dp33
g14
S'curve'
p34
sS'x'
F349
sg16
I01
sS'y'
F42
s(dp35
S'y'
F42
sS'x'
F261
sg16
I00
s(dp36
S'y'
F126
sS'x'
F189
sg16
I00
s(dp37
g14
S'curve'
p38
sS'x'
F189
sg16
I01
sS'y'
F514
s(dp39
S'y'
F926
sS'x'
F189
sg16
I00
s(dp40
S'y'
F990
sS'x'
F266
sg16
I00
s(dp41
g14
S'curve'
p42
sS'x'
F349
sg16
I01
sS'y'
F990
s(dp43
S'y'
F990
sS'x'
F429
sg16
I00
s(dp44
S'y'
F928
sS'x'
F508
sg16
I00
s(dp45
g14
S'curve'
p46
sS'x'
F508
sg16
I01
sS'y'
F514
s(dp47
S'y'
F123
sS'x'
F508
sg16
I00
s(dp48
S'y'
F42
sS'x'
F435
sg16
I00
stp49
stp50
sS'components'
p51
(tsS'anchors'
p52
(tsss."
LayerCount: 2
Fore
SplineSet
120 0 m 2
 153 0 l 2
 168 0 175 9 175 52 c 2
 175 646 l 2
 175 779 272.7532 990 371.63 990 c 0
 452.5292 990 478.372 891 478.372 666 c 2
 478.372 52 l 2
 478.372 9 485.372 0 500.372 0 c 2
 532.372 0 l 2
 545.372 0 555.372 9 555.372 52 c 2
 555.372 632 l 2
 555.372 968 503.372 1052 377.248 1052 c 0
 308.7084 1052 231.18 994 181.7416 853 c 0
 180.618 850 179.4944 849 177.2472 849 c 0
 176.1236 849 175 850 175 854 c 2
 175 1382 l 2
 175 1425 167 1438 152 1438 c 2
 120 1438 l 2
 106 1438 98 1425 98 1382 c 2
 98 52 l 2
 98 9 106 0 120 0 c 2
EndSplineSet
EndChar

StartChar: hungarumlaut
Encoding: 733 733 65
Width: 594
VWidth: 0
Flags: HW
LayerCount: 2
Fore
SplineSet
381 1166 m 2
 388 1166 l 2
 401 1166 402 1181 406 1205 c 1
 476 1533 l 2
 478 1545 480 1559 480 1570 c 0
 480 1586 477 1598 470 1598 c 2
 415 1598 l 2
 398 1598 392 1586 389 1543 c 2
 368 1233 l 2
 367 1219 367 1207 367 1198 c 0
 367 1171 371 1166 381 1166 c 2
257 1166 m 2
 264 1166 l 2
 278 1166 279 1181 284 1205 c 2
 352 1533 l 2
 355 1545 356 1559 356 1570 c 0
 356 1586 354 1598 346 1598 c 2
 290 1598 l 2
 274 1598 268 1586 266 1543 c 2
 245 1233 l 2
 244 1219 243 1207 243 1198 c 0
 243 1171 247 1166 257 1166 c 2
EndSplineSet
EndChar

StartChar: hyphen
Encoding: 45 45 66
Width: 358
VWidth: 0
Flags: HW
LayerCount: 2
Fore
SplineSet
100 484 m 2
 254 484 l 2
 268 484 278 498 278 541 c 2
 278 602 l 2
 278 645 268 659 254 659 c 2
 100 659 l 2
 84 659 77 645 77 602 c 2
 77 541 l 2
 77 498 84 484 100 484 c 2
EndSplineSet
EndChar

StartChar: i
Encoding: 105 105 67
Width: 281
VWidth: 0
Flags: HW
PickledData: "(dp1
S'com.typemytype.robofont.layerData'
p2
(dp3
S'b'
(dp4
S'name'
p5
S'i'
sS'lib'
p6
(dp7
sS'unicodes'
p8
(tsS'width'
p9
I281
sS'contours'
p10
(tsS'components'
p11
(tsS'anchors'
p12
(tsss."
LayerCount: 2
Fore
SplineSet
125 1179 m 2
 157 1179 l 2
 172 1179 179 1183 179 1226 c 2
 179 1294 l 2
 179 1337 172 1341 157 1341 c 2
 125 1341 l 2
 110 1341 102 1337 102 1294 c 2
 102 1226 l 2
 102 1183 110 1179 125 1179 c 2
125 0 m 2
 157 0 l 2
 172 0 179 4 179 47 c 2
 179 959 l 2
 179 1002 172 1006 157 1006 c 2
 125 1006 l 2
 110 1006 102 1002 102 959 c 2
 102 47 l 2
 102 4 110 0 125 0 c 2
EndSplineSet
EndChar

StartChar: j
Encoding: 106 106 68
Width: 355
VWidth: 0
Flags: HW
PickledData: "(dp1
S'com.typemytype.robofont.layerData'
p2
(dp3
S'b'
(dp4
S'name'
p5
S'j'
sS'lib'
p6
(dp7
sS'unicodes'
p8
(tsS'width'
p9
I355
sS'contours'
p10
(tsS'components'
p11
(tsS'anchors'
p12
(tsss."
LayerCount: 2
Fore
SplineSet
198 1179 m 2
 230 1179 l 2
 245 1179 252 1183 252 1226 c 2
 252 1294 l 2
 252 1337 245 1341 230 1341 c 2
 198 1341 l 2
 183 1341 175 1337 175 1294 c 2
 175 1226 l 2
 175 1183 183 1179 198 1179 c 2
74 -291 m 2
 113 -291 l 2
 219 -291 252 -259 252 6 c 2
 252 959 l 2
 252 1002 245 1006 229 1006 c 2
 198 1006 l 2
 184 1006 175 1002 175 959 c 2
 175 19 l 2
 175 -167 169 -212 112 -212 c 2
 74 -212 l 2
 57 -212 54 -221 54 -234 c 2
 54 -266 l 2
 54 -282 59 -291 74 -291 c 2
EndSplineSet
EndChar

StartChar: k
Encoding: 107 107 69
Width: 709
VWidth: 0
Flags: HW
LayerCount: 2
Fore
SplineSet
124 0 m 2
 156 0 l 2
 171 0 179 24 179 67 c 2
 179 288 l 2
 179 299 181.2472 305 183.4944 310 c 0
 184.618 312 263.27 429 289.1128 468 c 0
 292.4836 472 293.6072 473 294.7308 473 c 0
 299.2252 473 300.3488 468 301.4724 465 c 2
 508.2148 67 l 1
 524.2148 31 539.2148 0 552.2148 0 c 2
 610.2148 0 l 2
 617.2148 0 622.2148 9 622.2148 22 c 0
 622.2148 34 618.2148 50 610.2148 67 c 2
 367.7648 548 l 2
 367.7648 549 364.394 552 364.394 556 c 0
 364.394 559 365.5176 561 367.7648 564 c 2
 588.2148 939 l 2
 599.2148 958 604.2148 976 604.2148 989 c 0
 604.2148 999 600.2148 1006 594.2148 1006 c 2
 527.2148 1006 l 2
 513.2148 1006 494.7316 975 471.136 939 c 1
 184.618 474 l 2
 183.4944 472 182.3708 472 182.3708 472 c 1
 180.1236 472 179 475 179 481 c 2
 179 1371 l 2
 179 1414 171 1438 156 1438 c 2
 124 1438 l 2
 110 1438 102 1414 102 1371 c 2
 102 67 l 2
 102 24 110 0 124 0 c 2
EndSplineSet
EndChar

StartChar: l
Encoding: 108 108 70
Width: 281
VWidth: 0
Flags: HW
LayerCount: 2
Fore
SplineSet
124 0 m 2
 156 0 l 2
 171 0 179 24 179 67 c 2
 179 1371 l 2
 179 1414 171 1438 156 1438 c 2
 124 1438 l 2
 110 1438 102 1414 102 1371 c 2
 102 67 l 2
 102 24 110 0 124 0 c 2
EndSplineSet
EndChar

StartChar: less
Encoding: 60 60 71
Width: 494
VWidth: 0
Flags: HW
LayerCount: 2
Fore
SplineSet
391 -23 m 0
 397 -23 400 -10 400 15 c 2
 400 99 l 2
 400 142 392 170 376 193 c 2
 138 538 l 2
 135 541 134 546 134 550 c 0
 134 555 135 560 137 563 c 2
 377 947 l 2
 392 971 400 988 400 1031 c 2
 400 1115 l 2
 400 1143 397 1157 390 1157 c 0
 386 1157 382 1153 376 1145 c 2
 101 708 l 2
 86 685 78 651 78 612 c 2
 78 502 l 2
 78 462 86 417 100 396 c 2
 377 -5 l 2
 384 -14 388 -23 391 -23 c 0
EndSplineSet
EndChar

StartChar: m
Encoding: 109 109 72
Width: 1027
VWidth: 0
Flags: HW
PickledData: "(dp1
S'com.typemytype.robofont.layerData'
p2
(dp3
S'b'
(dp4
S'name'
p5
S'm'
sS'lib'
p6
(dp7
sS'unicodes'
p8
(tsS'width'
p9
I962
sS'contours'
p10
((dp11
S'points'
p12
((dp13
S'segmentType'
p14
S'line'
p15
sS'x'
F178
sS'smooth'
p16
I01
sS'y'
F656
s(dp17
S'y'
F789
sS'x'
F178
sg16
I00
s(dp18
S'y'
F989
sS'x'
F250
sg16
I00
s(dp19
g14
S'curve'
p20
sS'x'
F346
sg16
I01
sS'y'
F989
s(dp21
S'y'
F989
sS'x'
F409
sg16
I00
s(dp22
S'y'
F921
sS'x'
F445
sg16
I00
s(dp23
g14
S'curve'
p24
sS'x'
F445
sg16
I01
sS'y'
F696
s(dp25
g14
S'line'
p26
sS'x'
F445
sg16
I01
sS'y'
F52
s(dp27
S'y'
F9
sS'x'
F445
sg16
I00
s(dp28
S'y'
F0
sS'x'
F453
sg16
I00
s(dp29
g14
S'curve'
p30
sS'x'
F468
sg16
I01
sS'y'
F0
s(dp31
g14
S'line'
p32
sS'x'
F501
sg16
I01
sS'y'
F0
s(dp33
S'y'
F0
sS'x'
F515
sg16
I00
s(dp34
S'y'
F9
sS'x'
F524
sg16
I00
s(dp35
g14
S'curve'
p36
sS'x'
F524
sg16
I01
sS'y'
F52
s(dp37
g14
S'line'
p38
sS'x'
F524
sg16
I01
sS'y'
F656
s(dp39
S'y'
F789
sS'x'
F524
sg16
I00
s(dp40
S'y'
F989
sS'x'
F596
sg16
I00
s(dp41
g14
S'curve'
p42
sS'x'
F692
sg16
I01
sS'y'
F989
s(dp43
S'y'
F989
sS'x'
F755
sg16
I00
s(dp44
S'y'
F921
sS'x'
F791
sg16
I00
s(dp45
g14
S'curve'
p46
sS'x'
F791
sg16
I01
sS'y'
F696
s(dp47
g14
S'line'
p48
sS'x'
F791
sg16
I01
sS'y'
F52
s(dp49
S'y'
F9
sS'x'
F791
sg16
I00
s(dp50
S'y'
F0
sS'x'
F799
sg16
I00
s(dp51
g14
S'curve'
p52
sS'x'
F814
sg16
I01
sS'y'
F0
s(dp53
g14
S'line'
p54
sS'x'
F847
sg16
I01
sS'y'
F0
s(dp55
S'y'
F0
sS'x'
F861
sg16
I00
s(dp56
S'y'
F9
sS'x'
F870
sg16
I00
s(dp57
g14
S'curve'
p58
sS'x'
F870
sg16
I01
sS'y'
F52
s(dp59
g14
S'line'
p60
sS'x'
F870
sg16
I01
sS'y'
F642
s(dp61
S'y'
F978
sS'x'
F870
sg16
I00
s(dp62
S'y'
F1052
sS'x'
F798
sg16
I00
s(dp63
g14
S'curve'
p64
sS'x'
F693
sg16
I01
sS'y'
F1052
s(dp65
S'y'
F1052
sS'x'
F628
sg16
I00
s(dp66
S'y'
F997
sS'x'
F555
sg16
I00
s(dp67
g14
S'curve'
p68
sS'x'
F519
sg16
I00
sS'y'
F826
s(dp69
S'y'
F822
sS'x'
F518
sg16
I00
s(dp70
S'y'
F821
sS'x'
F517
sg16
I00
s(dp71
g14
S'curve'
p72
sS'x'
F516
sg16
I01
sS'y'
F821
s(dp73
S'y'
F821
sS'x'
F515
sg16
I00
s(dp74
S'y'
F823
sS'x'
F515
sg16
I00
s(dp75
g14
S'curve'
p76
sS'x'
F514
sg16
I01
sS'y'
F826
s(dp77
S'y'
F1005
sS'x'
F478
sg16
I00
s(dp78
S'y'
F1052
sS'x'
F429
sg16
I00
s(dp79
g14
S'curve'
p80
sS'x'
F347
sg16
I01
sS'y'
F1052
s(dp81
S'y'
F1052
sS'x'
F282
sg16
I00
s(dp82
S'y'
F997
sS'x'
F209
sg16
I00
s(dp83
g14
S'curve'
p84
sS'x'
F173
sg16
I00
sS'y'
F826
s(dp85
S'y'
F819
sS'x'
F172
sg16
I00
s(dp86
S'y'
F811
sS'x'
F170
sg16
I00
s(dp87
g14
S'curve'
p88
sS'x'
F168
sg16
I01
sS'y'
F811
s(dp89
S'y'
F811
sS'x'
F164
sg16
I00
s(dp90
S'y'
F816
sS'x'
F163
sg16
I00
s(dp91
g14
S'curve'
p92
sS'x'
F162
sg16
I00
sS'y'
F824
s(dp93
g14
S'line'
p94
sS'x'
F153
sg16
I01
sS'y'
F952
s(dp95
S'y'
F1002
sS'x'
F148
sg16
I00
s(dp96
S'y'
F1006
sS'x'
F142
sg16
I00
s(dp97
g14
S'curve'
p98
sS'x'
F126
sg16
I01
sS'y'
F1006
s(dp99
g14
S'line'
p100
sS'x'
F120
sg16
I01
sS'y'
F1006
s(dp101
S'y'
F1006
sS'x'
F105
sg16
I00
s(dp102
S'y'
F982
sS'x'
F99
sg16
I00
s(dp103
g14
S'curve'
p104
sS'x'
F99
sg16
I01
sS'y'
F939
s(dp105
g14
S'line'
p106
sS'x'
F99
sg16
I01
sS'y'
F52
s(dp107
S'y'
F9
sS'x'
F99
sg16
I00
s(dp108
S'y'
F0
sS'x'
F108
sg16
I00
s(dp109
g14
S'curve'
p110
sS'x'
F123
sg16
I01
sS'y'
F0
s(dp111
g14
S'line'
p112
sS'x'
F155
sg16
I01
sS'y'
F0
s(dp113
S'y'
F0
sS'x'
F169
sg16
I00
s(dp114
S'y'
F9
sS'x'
F178
sg16
I00
s(dp115
g14
S'curve'
p116
sS'x'
F178
sg16
I01
sS'y'
F52
stp117
stp118
sS'components'
p119
(tsS'anchors'
p120
(tsss."
LayerCount: 2
Fore
SplineSet
123 0 m 2
 155 0 l 2
 169 0 178 9 178 52 c 2
 178 656 l 2
 178 789 258.8992 989 366.7648 989 c 0
 437.5516 989 478.0012 921 478.0012 696 c 2
 478.0012 52 l 2
 478.0012 9 486.0012 0 501.0012 0 c 2
 534.0012 0 l 2
 548.0012 0 557.0012 9 557.0012 52 c 2
 557.0012 656 l 2
 557.0012 789 637.9004 989 745.766 989 c 0
 816.5528 989 857.0024 921 857.0024 696 c 2
 857.0024 52 l 2
 857.0024 9 865.0024 0 880.0024 0 c 2
 913.0024 0 l 2
 927.0024 0 936.0024 9 936.0024 52 c 2
 936.0024 642 l 2
 936.0024 978 864.0024 1052 746.8896 1052 c 0
 673.8556 1052 591.8328 997 552.0012 826 c 0
 551.0012 822 550.0012 821 549.0012 821 c 0
 548.0012 821 548.0012 823 547.0012 826 c 0
 511.0012 1005 460.0236 1052 367.8884 1052 c 0
 294.8544 1052 212.8316 997 173 826 c 0
 172 819 170 811 168 811 c 0
 164 811 163 816 162 824 c 2
 153 952 l 1
 148 1002 142 1006 126 1006 c 2
 120 1006 l 2
 105 1006 99 982 99 939 c 2
 99 52 l 2
 99 9 108 0 123 0 c 2
EndSplineSet
EndChar

StartChar: n
Encoding: 110 110 73
Width: 650
VWidth: 0
Flags: HW
PickledData: "(dp1
S'com.typemytype.robofont.layerData'
p2
(dp3
S'b'
(dp4
S'name'
p5
S'n'
sS'lib'
p6
(dp7
sS'unicodes'
p8
(tsS'width'
p9
I618
sS'contours'
p10
((dp11
S'points'
p12
((dp13
S'segmentType'
p14
S'curve'
p15
sS'x'
F322
sS'smooth'
p16
I01
sS'y'
F21
s(dp17
S'y'
F21
sS'x'
F234
sg16
I00
s(dp18
S'y'
F116
sS'x'
F162
sg16
I00
s(dp19
g14
S'curve'
p20
sS'x'
F162
sg16
I01
sS'y'
F504
s(dp21
S'y'
F916
sS'x'
F162
sg16
I00
s(dp22
S'y'
F990
sS'x'
F239
sg16
I00
s(dp23
g14
S'curve'
p24
sS'x'
F322
sg16
I01
sS'y'
F990
s(dp25
S'y'
F990
sS'x'
F402
sg16
I00
s(dp26
S'y'
F918
sS'x'
F481
sg16
I00
s(dp27
g14
S'curve'
p28
sS'x'
F481
sg16
I01
sS'y'
F504
s(dp29
S'y'
F113
sS'x'
F481
sg16
I00
s(dp30
S'y'
F21
sS'x'
F408
sg16
I00
stp31
s(dp32
g12
((dp33
g14
S'curve'
p34
sS'x'
F323
sg16
I01
sS'y'
F-41
s(dp35
S'y'
F-41
sS'x'
F433
sg16
I00
s(dp36
S'y'
F67
sS'x'
F558
sg16
I00
s(dp37
g14
S'curve'
p38
sS'x'
F558
sg16
I01
sS'y'
F504
s(dp39
S'y'
F952
sS'x'
F558
sg16
I00
s(dp40
S'y'
F1052
sS'x'
F443
sg16
I00
s(dp41
g14
S'curve'
p42
sS'x'
F323
sg16
I01
sS'y'
F1052
s(dp43
S'y'
F1052
sS'x'
F201
sg16
I00
s(dp44
S'y'
F952
sS'x'
F84
sg16
I00
s(dp45
g14
S'curve'
p46
sS'x'
F84
sg16
I01
sS'y'
F504
s(dp47
S'y'
F66
sS'x'
F84
sg16
I00
s(dp48
S'y'
F-41
sS'x'
F211
sg16
I00
stp49
stp50
sS'components'
p51
(tsS'anchors'
p52
(tsss."
LayerCount: 2
Fore
SplineSet
122 0 m 2
 154 0 l 2
 168 0 177 9 177 52 c 2
 177 656 l 2
 177 789 257.8992 989 365.7648 989 c 0
 436.5516 989 477.0012 921 477.0012 696 c 2
 477.0012 52 l 2
 477.0012 9 485.0012 0 500.0012 0 c 2
 533.0012 0 l 2
 547.0012 0 556.0012 9 556.0012 52 c 2
 556.0012 642 l 2
 556.0012 978 484.0012 1052 366.8884 1052 c 0
 293.8544 1052 211.8316 997 172 826 c 0
 171 819 169 811 167 811 c 0
 163 811 162 816 161 824 c 2
 152 952 l 1
 147 1002 141 1006 125 1006 c 2
 119 1006 l 2
 104 1006 98 982 98 939 c 2
 98 52 l 2
 98 9 107 0 122 0 c 2
EndSplineSet
EndChar

StartChar: nine
Encoding: 57 57 74
Width: 727
VWidth: 0
Flags: HW
LayerCount: 2
Fore
SplineSet
355 695 m 0
 203 695 167 824 167 996 c 0
 167 1240 236 1296 369 1296 c 0
 501 1296 557 1143 557 875 c 2
 557 744 l 1
 473 710 406 695 355 695 c 0
345 -42 m 0
 539 -42 635 135 635 694 c 0
 635 1138 591 1472 369 1472 c 0
 212 1472 89 1369 89 1004 c 0
 89 747 145 534 352 534 c 0
 407 534 475 549 553 583 c 1
 553 520 l 2
 553 278 499 135 352 135 c 0
 293 135 199 185 171 224 c 0
 170 226 167 227 165 227 c 0
 161 227 156 219 154 201 c 2
 143 106 l 2
 143 101 143 96 143 91 c 0
 143 73 146 60 152 53 c 0
 193 5 284 -42 345 -42 c 0
EndSplineSet
EndChar

StartChar: numbersign
Encoding: 35 35 75
Width: 673
VWidth: 0
Flags: HW
LayerCount: 2
Fore
SplineSet
240 587 m 1
 259 834 l 1
 421 834 l 1
 402 587 l 1
 240 587 l 1
126 -205 m 2
 162 -205 l 2
 170 -205 177 -191 179 -170 c 2
 226 417 l 1
 388 417 l 1
 341 -170 l 2
 340 -187 343 -205 349 -205 c 2
 385 -205 l 2
 392 -205 399 -191 401 -170 c 2
 448 417 l 1
 532 417 l 2
 549 417 555 431 555 474 c 2
 555 530 l 2
 555 573 549 587 532 587 c 2
 462 587 l 1
 482 834 l 1
 560 834 l 2
 574 834 581 848 581 891 c 2
 581 949 l 2
 581 992 574 1006 560 1006 c 2
 494 1006 l 1
 543 1612 l 2
 545 1629 542 1647 537 1647 c 2
 500 1647 l 2
 493 1647 486 1633 484 1612 c 2
 434 1006 l 1
 272 1006 l 1
 321 1612 l 2
 322 1629 319 1647 314 1647 c 2
 276 1647 l 2
 270 1647 262 1633 260 1612 c 2
 211 1006 l 1
 139 1006 l 2
 124 1006 117 992 117 949 c 2
 117 891 l 2
 117 848 124 834 139 834 c 2
 198 834 l 1
 178 587 l 1
 113 587 l 2
 98 587 90 573 90 530 c 2
 90 474 l 2
 90 431 98 417 113 417 c 2
 165 417 l 1
 118 -170 l 2
 116 -187 120 -205 126 -205 c 2
EndSplineSet
EndChar

StartChar: o
Encoding: 111 111 76
Width: 685
VWidth: 0
Flags: HW
PickledData: "(dp1
S'com.typemytype.robofont.layerData'
p2
(dp3
S'b'
(dp4
S'name'
p5
S'o'
sS'lib'
p6
(dp7
sS'unicodes'
p8
(tsS'width'
p9
I646
sS'contours'
p10
(tsS'components'
p11
(tsS'anchors'
p12
(tsss."
LayerCount: 2
Fore
SplineSet
343.8996 -20 m 0
 467.4956 -20 598.4284 77 598.4284 514 c 0
 598.4284 962 478.7316 1052 343.8996 1052 c 0
 206.8204 1052 85 962 85 514 c 0
 85 76 218.0564 -20 343.8996 -20 c 0
342.776 42 m 0
 243.8992 42 163 126 163 514 c 0
 163 926 249.5172 990 342.776 990 c 0
 432.664 990 521.4284 928 521.4284 514 c 0
 521.4284 123 439.4056 42 342.776 42 c 0
EndSplineSet
EndChar

StartChar: one
Encoding: 49 49 77
Width: 378
VWidth: 0
Flags: HW
LayerCount: 2
Fore
SplineSet
221 0 m 2
 254 0 l 2
 267 0 276 24 276 67 c 2
 276 1371 l 2
 276 1414 267 1439 254 1435 c 2
 91 1390 l 2
 78 1386 70 1364 70 1321 c 2
 70 1286 l 2
 70 1243 78 1218 92 1222 c 2
 185 1248 l 2
 193 1250 199 1232 199 1212 c 2
 199 67 l 2
 199 24 206 0 221 0 c 2
EndSplineSet
EndChar

StartChar: p
Encoding: 112 112 78
Width: 698
VWidth: 0
Flags: HW
PickledData: "(dp1
S'com.typemytype.robofont.layerData'
p2
(dp3
S'b'
(dp4
S'name'
p5
S'p'
sS'lib'
p6
(dp7
sS'unicodes'
p8
(tsS'width'
p9
I659
sS'contours'
p10
((dp11
S'points'
p12
((dp13
S'segmentType'
p14
S'curve'
p15
sS'x'
F346
sS'smooth'
p16
I01
sS'y'
F-20
s(dp17
S'y'
F-20
sS'x'
F456
sg16
I00
s(dp18
S'y'
F77
sS'x'
F581
sg16
I00
s(dp19
g14
S'curve'
p20
sS'x'
F581
sg16
I01
sS'y'
F514
s(dp21
S'y'
F962
sS'x'
F581
sg16
I00
s(dp22
S'y'
F1052
sS'x'
F466
sg16
I00
s(dp23
g14
S'curve'
p24
sS'x'
F346
sg16
I01
sS'y'
F1052
s(dp25
S'y'
F1052
sS'x'
F224
sg16
I00
s(dp26
S'y'
F962
sS'x'
F107
sg16
I00
s(dp27
g14
S'curve'
p28
sS'x'
F107
sg16
I01
sS'y'
F514
s(dp29
S'y'
F76
sS'x'
F107
sg16
I00
s(dp30
S'y'
F-20
sS'x'
F234
sg16
I00
stp31
s(dp32
g12
((dp33
g14
S'curve'
p34
sS'x'
F345
sg16
I01
sS'y'
F42
s(dp35
S'y'
F42
sS'x'
F257
sg16
I00
s(dp36
S'y'
F126
sS'x'
F185
sg16
I00
s(dp37
g14
S'curve'
p38
sS'x'
F185
sg16
I01
sS'y'
F514
s(dp39
S'y'
F926
sS'x'
F185
sg16
I00
s(dp40
S'y'
F990
sS'x'
F262
sg16
I00
s(dp41
g14
S'curve'
p42
sS'x'
F345
sg16
I01
sS'y'
F990
s(dp43
S'y'
F990
sS'x'
F425
sg16
I00
s(dp44
S'y'
F928
sS'x'
F504
sg16
I00
s(dp45
g14
S'curve'
p46
sS'x'
F504
sg16
I01
sS'y'
F514
s(dp47
S'y'
F123
sS'x'
F504
sg16
I00
s(dp48
S'y'
F42
sS'x'
F431
sg16
I00
stp49
stp50
sS'components'
p51
(tsS'anchors'
p52
(tsss."
LayerCount: 2
Fore
SplineSet
356.776 43 m 0
 263.5172 43 177 225 177 507 c 0
 177 765 257.8992 990 356.776 990 c 0
 453.4056 990 534.3048 798 534.3048 507 c 0
 534.3048 143 446.664 43 356.776 43 c 0
122 -427 m 2
 154 -427 l 2
 168 -427 177 -408 177 -365 c 2
 177 167 l 2
 177 173 177 175 178.1236 175 c 2
 178.1236 175 180.3708 173 181.4944 170 c 0
 221.944 41 288.2364 -21 362.394 -21 c 0
 491.608 -21 612.3048 99 612.3048 507 c 0
 612.3048 904 493.8552 1052 369.1356 1052 c 0
 293.8544 1052 209.5844 968 167 806 c 0
 165 802 164 800 162 800 c 0
 161 800 158 805 158 811 c 0
 158 844 153 889 148 927 c 0
 140 1000 132 1011 122 1011 c 2
 117 1011 l 2
 102 1011 99 997 99 954 c 2
 99 -365 l 2
 99 -408 107 -427 122 -427 c 2
EndSplineSet
EndChar

StartChar: parenleft
Encoding: 40 40 79
Width: 377
VWidth: 0
Flags: HW
LayerCount: 2
Fore
SplineSet
266 -143 m 0
 279 -151 292 -111 292 -73 c 2
 292 -55 l 2
 292 14 279 15 257 46 c 1
 213 112 168 236 168 699 c 0
 168 1162 212 1284 256 1350 c 0
 277 1381 292 1381 292 1450 c 2
 292 1470 l 2
 292 1508 279 1548 266 1540 c 0
 131 1460 92 1100 92 699 c 0
 92 299 131 -62 266 -143 c 0
EndSplineSet
EndChar

StartChar: parenright
Encoding: 41 41 80
Width: 382
VWidth: 0
Flags: HW
LayerCount: 2
Fore
SplineSet
113 -143 m 0
 248 -63 288 297 288 698 c 0
 288 1098 248 1459 113 1540 c 0
 100 1548 86 1508 86 1470 c 2
 86 1452 l 2
 86 1383 102 1382 122 1351 c 0
 167 1285 211 1161 211 698 c 0
 211 235 167 113 122 47 c 0
 102 16 86 16 86 -53 c 2
 86 -73 l 2
 86 -111 100 -151 113 -143 c 0
EndSplineSet
EndChar

StartChar: percent
Encoding: 37 37 81
Width: 1003
VWidth: 0
Flags: HW
LayerCount: 2
Fore
SplineSet
756.2476 1 m 0
 869.6188 1 920.6188 198 920.6188 436 c 0
 920.6188 672 870.6188 877 756.2476 877 c 0
 643 877 593 672 593 436 c 0
 593 198 645 1 756.2476 1 c 0
756.2476 141 m 0
 694.4496 141 654 255 654 439 c 0
 654 627 692.2024 737 756.2476 737 c 0
 824.7872 737 859.6188 627 859.6188 439 c 0
 859.6188 255 823.6636 141 756.2476 141 c 0
239 621 m 0
 339 621 391 818 391 1056 c 0
 391 1292 341 1497 239 1497 c 0
 135 1497 85 1292 85 1056 c 0
 85 818 137 621 239 621 c 0
239 761 m 0
 182 761 146 875 146 1059 c 0
 146 1247 179 1357 239 1357 c 0
 300 1357 330 1247 330 1059 c 0
 330 875 298 761 239 761 c 0
365 -82 m 2
 376 -82 l 2
 393 -82 407 -54 413 -12 c 2
 635 1466 l 1
 641 1499 632 1536 620 1536 c 2
 609 1536 l 2
 594 1536 579 1508 572 1466 c 2
 350 -12 l 2
 345 -45 353 -82 365 -82 c 2
EndSplineSet
EndChar

StartChar: period
Encoding: 46 46 82
Width: 269
VWidth: 0
Flags: HW
LayerCount: 2
Fore
SplineSet
110 0 m 2
 157 0 l 2
 172 0 183 34 183 77 c 2
 183 221 l 2
 183 264 172 298 157 298 c 2
 110 298 l 2
 96 298 84 264 84 221 c 2
 84 77 l 2
 84 34 96 0 110 0 c 2
EndSplineSet
EndChar

StartChar: plus
Encoding: 43 43 83
Width: 512
VWidth: 0
Flags: HW
LayerCount: 2
Fore
SplineSet
226 20 m 2
 285 20 l 2
 300 20 311 54 311 97 c 2
 311 360 l 2
 311 380 318 397 324 397 c 2
 406 397 l 2
 420 397 431 431 431 474 c 2
 431 625 l 2
 431 668 420 702 406 702 c 2
 324 702 l 2
 318 702 311 719 311 739 c 2
 311 1002 l 2
 311 1045 300 1079 285 1079 c 2
 226 1079 l 2
 212 1079 200 1045 200 1002 c 2
 200 739 l 2
 200 719 193 702 187 702 c 2
 104 702 l 2
 89 702 78 668 78 625 c 2
 78 474 l 2
 78 431 89 397 104 397 c 2
 187 397 l 2
 193 397 200 380 200 360 c 2
 200 97 l 2
 200 54 212 20 226 20 c 2
EndSplineSet
EndChar

StartChar: q
Encoding: 113 113 84
Width: 698
VWidth: 0
Flags: HW
LayerCount: 2
Fore
SplineSet
354.5288 43 m 0
 264.6408 43 177 143 177 507 c 0
 177 798 257.8992 990 354.5288 990 c 0
 453.4056 990 534.3048 765 534.3048 507 c 0
 534.3048 225 447.7876 43 354.5288 43 c 0
557.3048 -427 m 2
 589.3048 -427 l 2
 604.3048 -427 612.3048 -408 612.3048 -365 c 2
 612.3048 954 l 2
 612.3048 997 609.3048 1011 594.3048 1011 c 2
 589.3048 1011 l 2
 579.3048 1011 571.3048 1000 563.3048 927 c 0
 558.3048 889 553.3048 844 553.3048 811 c 0
 553.3048 805 550.3048 800 549.3048 800 c 0
 547.3048 800 546.3048 802 544.3048 806 c 0
 501.7204 968 417.4504 1052 342.1692 1052 c 0
 217.4496 1052 99 904 99 507 c 0
 99 99 219.6968 -21 348.9108 -21 c 0
 423.0684 -21 489.3608 41 529.8104 170 c 0
 530.934 173 533.1812 175 533.1812 175 c 2
 534.3048 175 534.3048 173 534.3048 167 c 2
 534.3048 -365 l 2
 534.3048 -408 543.3048 -427 557.3048 -427 c 2
EndSplineSet
EndChar

StartChar: quotedbl
Encoding: 34 34 85
Width: 379
VWidth: 0
Flags: HW
LayerCount: 2
Fore
SplineSet
247 772 m 2
 249 772 l 2
 264 772 263 796 265 839 c 2
 286 1350 l 2
 288 1393 278 1438 263 1438 c 2
 231 1438 l 2
 217 1438 205 1394 207 1351 c 2
 231 839 l 2
 233 796 233 772 247 772 c 2
130 772 m 2
 132 772 l 2
 146 772 146 796 147 839 c 2
 168 1350 l 2
 170 1393 160 1438 146 1438 c 2
 115 1438 l 2
 99 1438 89 1394 91 1351 c 2
 114 839 l 2
 116 796 116 772 130 772 c 2
EndSplineSet
EndChar

StartChar: quoteleft
Encoding: 8216 8216 86
Width: 296
VWidth: 0
Flags: HW
LayerCount: 2
Fore
SplineSet
115 911 m 2
 182 911 l 2
 196 911 203 932 203 975 c 2
 203 1178 l 2
 203 1216 195 1228 182 1228 c 2
 153 1228 l 2
 148 1228 147 1239 147 1255 c 0
 147 1279 159 1356 182 1399 c 0
 197 1426 203 1420 203 1474 c 2
 203 1484 l 2
 203 1520 192 1535 180 1529 c 0
 133 1506 88 1370 88 1133 c 2
 88 988 l 2
 88 945 99 911 115 911 c 2
EndSplineSet
EndChar

StartChar: quoteright
Encoding: 8217 8217 87
Width: 290
VWidth: 0
Flags: HW
LayerCount: 2
Fore
SplineSet
114 917 m 0
 162 940 207 1076 207 1313 c 2
 207 1458 l 2
 207 1501 195 1535 180 1535 c 2
 113 1535 l 2
 98 1535 92 1514 92 1471 c 2
 92 1268 l 2
 92 1230 100 1218 113 1218 c 2
 141 1218 l 2
 147 1218 147 1207 147 1191 c 0
 147 1167 136 1090 113 1047 c 0
 98 1020 92 1026 92 972 c 2
 92 962 l 2
 92 926 102 911 114 917 c 0
EndSplineSet
EndChar

StartChar: r
Encoding: 114 114 88
Width: 439
VWidth: 0
Flags: HW
PickledData: "(dp1
S'com.typemytype.robofont.layerData'
p2
(dp3
S'b'
(dp4
S'name'
p5
S'r'
sS'lib'
p6
(dp7
sS'unicodes'
p8
(tsS'width'
p9
I439
sS'contours'
p10
(tsS'components'
p11
(tsS'anchors'
p12
(tsss."
LayerCount: 2
Fore
SplineSet
122 0 m 2
 154 0 l 2
 168 0 177 10 177 53 c 2
 177 606 l 2
 177 739 243 959 310 959 c 2
 333 959 l 2
 349 959 357 968 357 1002 c 2
 357 1010 l 2
 357 1043 349 1052 333 1052 c 2
 318 1052 l 2
 254 1052 199 936 173 833 c 0
 171 826 169 811 167 811 c 0
 163 811 162 823 161 832 c 2
 152 942 l 2
 147 992 141 1006 125 1006 c 2
 119 1006 l 2
 104 1006 98 972 98 929 c 2
 98 53 l 2
 98 10 107 0 122 0 c 2
EndSplineSet
EndChar

StartChar: ring
Encoding: 730 730 89
Width: 597
VWidth: 0
Flags: HW
LayerCount: 2
Fore
SplineSet
288.3036 135 m 0
 328.7532 135 380.4836 196 380.4836 359 c 0
 380.4836 527 333.2476 584 288.3036 584 c 0
 242.236 584 195 527 195 359 c 0
 195 195 245.6068 135 288.3036 135 c 0
288.3036 222 m 0
 256.8428 222 231 268 231 359 c 0
 231 458 259.09 496 288.3036 496 c 0
 316.3936 496 344.4836 458 344.4836 359 c 0
 344.4836 267 318.6408 222 288.3036 222 c 0
EndSplineSet
EndChar

StartChar: s
Encoding: 115 115 90
Width: 683
VWidth: 0
Flags: HW
PickledData: "(dp1
S'com.typemytype.robofont.layerData'
p2
(dp3
S'b'
(dp4
S'name'
p5
S's'
sS'lib'
p6
(dp7
sS'unicodes'
p8
(tsS'width'
p9
I644
sS'contours'
p10
((dp11
S'points'
p12
((dp13
S'segmentType'
p14
S'curve'
p15
sS'x'
F324
sS'smooth'
p16
I01
sS'y'
F-20
s(dp17
S'y'
F-20
sS'x'
F434
sg16
I00
s(dp18
S'y'
F77
sS'x'
F559
sg16
I00
s(dp19
g14
S'curve'
p20
sS'x'
F559
sg16
I01
sS'y'
F514
s(dp21
S'y'
F962
sS'x'
F559
sg16
I00
s(dp22
S'y'
F1052
sS'x'
F444
sg16
I00
s(dp23
g14
S'curve'
p24
sS'x'
F324
sg16
I01
sS'y'
F1052
s(dp25
S'y'
F1052
sS'x'
F202
sg16
I00
s(dp26
S'y'
F962
sS'x'
F85
sg16
I00
s(dp27
g14
S'curve'
p28
sS'x'
F85
sg16
I01
sS'y'
F514
s(dp29
S'y'
F76
sS'x'
F85
sg16
I00
s(dp30
S'y'
F-20
sS'x'
F212
sg16
I00
stp31
s(dp32
g12
((dp33
g14
S'curve'
p34
sS'x'
F323
sg16
I01
sS'y'
F42
s(dp35
S'y'
F42
sS'x'
F235
sg16
I00
s(dp36
S'y'
F126
sS'x'
F163
sg16
I00
s(dp37
g14
S'curve'
p38
sS'x'
F163
sg16
I01
sS'y'
F514
s(dp39
S'y'
F926
sS'x'
F163
sg16
I00
s(dp40
S'y'
F990
sS'x'
F240
sg16
I00
s(dp41
g14
S'curve'
p42
sS'x'
F323
sg16
I01
sS'y'
F990
s(dp43
S'y'
F990
sS'x'
F403
sg16
I00
s(dp44
S'y'
F928
sS'x'
F482
sg16
I00
s(dp45
g14
S'curve'
p46
sS'x'
F482
sg16
I01
sS'y'
F514
s(dp47
S'y'
F123
sS'x'
F482
sg16
I00
s(dp48
S'y'
F42
sS'x'
F409
sg16
I00
stp49
stp50
sS'components'
p51
(tsS'anchors'
p52
(tsss."
LayerCount: 2
Fore
SplineSet
593.1812 260 m 0
 593.1812 430 535.1812 507 348.6524 560 c 0
 177.8652 608 170 656 170 782 c 0
 170 886 214.944 990 353.1468 990 c 0
 427.3044 990 496.9676 965 527.1812 943 c 0
 540.1812 933 555.1812 938 555.1812 964 c 2
 555.1812 979 l 2
 555.1812 990 552.1812 998 543.1812 1005 c 0
 502.5856 1035 432.9224 1052 357.6412 1052 c 0
 268.8768 1052 94 1002 94 782 c 0
 94 614 148 542 327.304 494 c 0
 517.1924 444 526.1812 347 526.1812 251 c 0
 526.1812 137 459.8888 43 328.4276 43 c 0
 239.6632 43 176.7416 63 131 84 c 0
 127 86 96 108 96 68 c 2
 96 59 l 2
 96 31 114 25 124 20 c 0
 170 -3 255.3936 -21 329.5512 -21 c 0
 474.4956 -21 593.1812 64 593.1812 260 c 0
EndSplineSet
EndChar

StartChar: semicolon
Encoding: 59 59 91
Width: 307
VWidth: 0
Flags: HW
LayerCount: 2
Fore
SplineSet
130 754 m 2
 177 754 l 2
 192 754 203 788 203 831 c 2
 203 975 l 2
 203 1018 192 1052 177 1052 c 2
 130 1052 l 2
 116 1052 105 1018 105 975 c 2
 105 831 l 2
 105 788 116 754 130 754 c 2
118 -301 m 0
 166 -278 211 -142 211 95 c 2
 211 240 l 2
 211 283 199 317 184 317 c 2
 117 317 l 2
 102 317 96 296 96 253 c 2
 96 50 l 2
 96 12 104 0 117 0 c 2
 145 0 l 2
 151 0 151 -11 151 -27 c 0
 151 -51 140 -128 117 -171 c 0
 102 -198 96 -192 96 -246 c 2
 96 -256 l 2
 96 -292 106 -307 118 -301 c 0
EndSplineSet
EndChar

StartChar: seven
Encoding: 55 55 92
Width: 456
VWidth: 0
Flags: HW
LayerCount: 2
Fore
SplineSet
179 0 m 2
 211 0 l 2
 226 0 229 26 234 67 c 2
 370 1371 l 2
 374 1413 365 1438 349 1438 c 2
 98 1438 l 2
 83 1438 75 1414 75 1371 c 2
 75 1336 l 2
 75 1293 83 1269 98 1269 c 2
 269 1269 l 2
 276 1269 281 1255 279 1236 c 2
 157 67 l 2
 152 26 164 0 179 0 c 2
EndSplineSet
EndChar

StartChar: six
Encoding: 54 54 93
Width: 773
VWidth: 0
Flags: HW
LayerCount: 2
Fore
SplineSet
379.2368 134 m 0
 232.0452 134 168 287 168 555 c 2
 168 686 l 1
 263.506 720 337.6636 735 394.9672 735 c 0
 566.878 735 606.204 606 606.204 434 c 0
 606.204 190 528.6756 134 379.2368 134 c 0
379.2368 -42 m 0
 556.7656 -42 684.204 61 684.204 426 c 0
 684.204 683 628.204 896 397.2144 896 c 0
 336.54 896 261.2588 881 171.3708 847 c 1
 171.3708 910 l 2
 171.3708 1152 233.1688 1295 397.2144 1295 c 0
 464.6304 1295 569.1252 1245 600.586 1206 c 0
 602.8332 1204 606.204 1203 608.204 1203 c 0
 612.204 1203 616.204 1211 618.204 1229 c 2
 629.204 1324 l 2
 630.204 1329 631.204 1334 631.204 1339 c 0
 631.204 1357 627.204 1370 622.204 1377 c 1
 576.9904 1425 475.8664 1472 405.0796 1472 c 0
 188.2248 1472 90 1295 90 736 c 0
 90 292 134 -42 379.2368 -42 c 0
EndSplineSet
EndChar

StartChar: slash
Encoding: 47 47 94
Width: 457
VWidth: 0
Flags: HW
LayerCount: 2
Fore
SplineSet
81 -205 m 2
 138 -205 l 2
 145 -205 151 -191 154 -170 c 2
 388 1612 l 2
 390 1629 385 1647 380 1647 c 2
 324 1647 l 2
 318 1647 309 1633 307 1612 c 2
 73 -170 l 2
 71 -187 75 -205 81 -205 c 2
EndSplineSet
EndChar

StartChar: t
Encoding: 116 116 96
Width: 487
VWidth: 0
Flags: HW
PickledData: "(dp1
S'com.typemytype.robofont.layerData'
p2
(dp3
S'b'
(dp4
S'name'
p5
S't'
sS'lib'
p6
(dp7
sS'unicodes'
p8
(tsS'width'
p9
I487
sS'contours'
p10
((dp11
S'points'
p12
((dp13
S'segmentType'
p14
S'curve'
p15
sS'x'
F316
sS'smooth'
p16
I01
sS'y'
F-20
s(dp17
S'y'
F-20
sS'x'
F426
sg16
I00
s(dp18
S'y'
F77
sS'x'
F551
sg16
I00
s(dp19
g14
S'curve'
p20
sS'x'
F551
sg16
I01
sS'y'
F514
s(dp21
S'y'
F962
sS'x'
F551
sg16
I00
s(dp22
S'y'
F1052
sS'x'
F436
sg16
I00
s(dp23
g14
S'curve'
p24
sS'x'
F316
sg16
I01
sS'y'
F1052
s(dp25
S'y'
F1052
sS'x'
F194
sg16
I00
s(dp26
S'y'
F962
sS'x'
F77
sg16
I00
s(dp27
g14
S'curve'
p28
sS'x'
F77
sg16
I01
sS'y'
F514
s(dp29
S'y'
F76
sS'x'
F77
sg16
I00
s(dp30
S'y'
F-20
sS'x'
F204
sg16
I00
stp31
s(dp32
g12
((dp33
g14
S'curve'
p34
sS'x'
F315
sg16
I01
sS'y'
F42
s(dp35
S'y'
F42
sS'x'
F227
sg16
I00
s(dp36
S'y'
F126
sS'x'
F155
sg16
I00
s(dp37
g14
S'curve'
p38
sS'x'
F155
sg16
I01
sS'y'
F514
s(dp39
S'y'
F926
sS'x'
F155
sg16
I00
s(dp40
S'y'
F990
sS'x'
F232
sg16
I00
s(dp41
g14
S'curve'
p42
sS'x'
F315
sg16
I01
sS'y'
F990
s(dp43
S'y'
F990
sS'x'
F395
sg16
I00
s(dp44
S'y'
F928
sS'x'
F474
sg16
I00
s(dp45
g14
S'curve'
p46
sS'x'
F474
sg16
I01
sS'y'
F514
s(dp47
S'y'
F123
sS'x'
F474
sg16
I00
s(dp48
S'y'
F42
sS'x'
F401
sg16
I00
stp49
stp50
sS'components'
p51
(tsS'anchors'
p52
(tsss."
LayerCount: 2
Fore
SplineSet
316 -27 m 2
 394 -27 l 2
 412 -27 421 -22 421 -6 c 2
 421 29 l 2
 421 41 405 43 392 43 c 2
 328 43 l 2
 275 43 234 67 234 277 c 2
 234 921 l 2
 234 936 236 937 244 937 c 2
 375 937 l 2
 391 937 398 938 398 969 c 2
 398 973 l 2
 398 1005 391 1006 375 1006 c 2
 244 1006 l 2
 236 1006 234 1013 234 1033 c 2
 234 1428 l 2
 234 1471 226 1475 211 1475 c 2
 193 1475 l 2
 179 1475 172 1470 171 1428 c 2
 157 1033 l 2
 157 1013 153 1006 147 1006 c 2
 79 1006 l 2
 64 1006 56 1005 56 973 c 2
 56 969 l 2
 56 938 64 937 79 937 c 2
 147 937 l 2
 153 937 157 936 157 921 c 2
 157 273 l 2
 157 46 211 -27 316 -27 c 2
EndSplineSet
EndChar

StartChar: three
Encoding: 51 51 97
Width: 815
VWidth: 0
Flags: HW
LayerCount: 2
Fore
SplineSet
365.86 791 m 1
 365.86 787 l 1
 364.8 780 362.68 771 362.68 761 c 2
 362.68 682 l 1
 364.8 681 364.8 681 364.8 680 c 0
 365.86 651 371.16 639 379.64 639 c 0
 551.36 639 643.58 657 643.58 390 c 0
 643.58 209 551.36 135 411.44 135 c 0
 306.5 135 240.78 169 174 361 c 0
 169 373 168 387 155 397 c 1
 100 371 l 1
 94 333 l 1
 179.3 19 280 -41 411.44 -41 c 0
 576.8 -41 720.58 55 720.58 375 c 0
 720.58 575 670.58 690 603.3 727 c 1
 669.58 760 713.58 863 713.58 1063 c 0
 713.58 1383 576.8 1475 411.44 1475 c 0
 280 1475 166 1436 88 1082 c 1
 93 1043 l 1
 149 1017 l 1
 163 1027 164 1040 167 1054 c 0
 216.4 1265 306.5 1299 411.44 1299 c 0
 551.36 1299 634.04 1254 634.04 1053 c 0
 634.04 836 557.72 815 379.64 815 c 0
 372.22 815 367.98 808 365.86 791 c 1
EndSplineSet
EndChar

StartChar: u
Encoding: 117 117 98
Width: 650
VWidth: 0
Flags: HW
PickledData: "(dp1
S'com.typemytype.robofont.layerData'
p2
(dp3
S'b'
(dp4
S'name'
p5
S'u'
sS'lib'
p6
(dp7
sS'unicodes'
p8
(tsS'width'
p9
I618
sS'contours'
p10
(tsS'components'
p11
(tsS'anchors'
p12
(tsss."
LayerCount: 2
Fore
SplineSet
287.1128 -21 m 0
 360.1468 -21 442.1696 9 482.0012 180 c 0
 483.0012 187 485.0012 195 487.0012 195 c 0
 491.0012 195 492.0012 190 493.0012 182 c 2
 502.0012 54 l 1
 507.0012 4 513.0012 0 529.0012 0 c 2
 535.0012 0 l 2
 550.0012 0 556.0012 24 556.0012 67 c 2
 556.0012 954 l 2
 556.0012 997 547.0012 1006 532.0012 1006 c 2
 500.0012 1006 l 2
 486.0012 1006 477.0012 997 477.0012 954 c 2
 477.0012 350 l 2
 477.0012 217 396.102 42 288.2364 42 c 0
 217.4496 42 177 85 177 310 c 2
 177 954 l 2
 177 997 169 1006 154 1006 c 2
 121 1006 l 2
 107 1006 98 997 98 954 c 2
 98 364 l 2
 98 28 170 -21 287.1128 -21 c 0
EndSplineSet
EndChar

StartChar: v
Encoding: 118 118 99
Width: 618
VWidth: 0
Flags: HW
LayerCount: 2
Fore
SplineSet
291 1 m 2
 329 1 l 2
 343 1 357 27 365 67 c 2
 529 939 l 2
 533 957 535 971 535 982 c 0
 535 998 531 1006 522 1006 c 2
 480 1006 l 2
 466 1006 456 985 448 939 c 2
 316 175 l 2
 315 169 314 166 313 166 c 0
 311 166 310 169 309 175 c 2
 164 939 l 2
 156 982 150 1006 134 1006 c 2
 93 1006 l 2
 83 1006 79 996 79 977 c 0
 79 967 80 954 83 939 c 2
 260 67 l 2
 268 27 278 1 291 1 c 2
EndSplineSet
EndChar

StartChar: w
Encoding: 119 119 100
Width: 974
VWidth: 0
Flags: HW
LayerCount: 2
Fore
SplineSet
275 0 m 2
 315 0 l 2
 329.6068 0 346.4608 23 354.326 67 c 2
 481.2928 781 l 2
 482.4164 784 485.7872 788 486.9108 788 c 0
 488.0344 788 489.158 787 490.2816 781 c 2
 628.4844 67 l 2
 636.3496 26 650.9564 0 665.5632 0 c 2
 706.5632 0 l 2
 719.5632 0 734.5632 23 742.5632 67 c 2
 886.5632 939 l 1
 890.5632 957 892.5632 971 892.5632 982 c 0
 892.5632 998 888.5632 1006 880.5632 1006 c 2
 838.5632 1006 l 2
 822.5632 1006 812.5632 986 805.5632 939 c 2
 691.5632 183 l 2
 691.5632 180 690.5632 175 686.5632 175 c 0
 685.5632 175 684.5632 177 683.5632 183 c 2
 534.102 939 l 2
 526.2368 980 519.4952 1006 506.012 1006 c 2
 470.0568 1006 l 2
 454.3264 1006 444.214 986 435.2252 939 c 2
 301 183 l 2
 300 177 299 173 297 173 c 0
 296 173 295 176 292 183 c 1
 165 939 l 2
 157 983 151 1006 135 1006 c 2
 94 1006 l 2
 84 1006 80 996 80 977 c 0
 80 967 81 954 84 939 c 2
 242 67 l 2
 249 27 261 0 275 0 c 2
EndSplineSet
EndChar

StartChar: x
Encoding: 120 120 101
Width: 721
VWidth: 0
Flags: HW
LayerCount: 2
Fore
SplineSet
99 0 m 2
 142 0 l 2
 159.9776 0 180.2024 18 194.8092 47 c 0
 221.7756 103 284.6972 229 353.2368 375 c 1
 358.8548 380 361.102 381 363.3492 381 c 0
 365.5964 381 366.72 378 368.9672 375 c 0
 439.754 228 499.3048 98 522.9004 50 c 0
 536.3836 21 555.4848 0 573.4624 0 c 2
 620.4624 0 l 2
 626.4624 0 629.4624 14 629.4624 28 c 0
 629.4624 35 628.4624 42 626.4624 48 c 0
 549.8668 219 481.3272 368 420.6528 493 c 1
 419.5292 499 418.4056 504 418.4056 507 c 0
 418.4056 511 419.5292 513 420.6528 515 c 0
 497.0576 678 575.4624 845 624.4624 960 c 0
 627.4624 965 628.4624 973 628.4624 981 c 0
 628.4624 994 624.4624 1006 618.4624 1006 c 2
 571.2152 1006 l 2
 554.3612 1006 544.2488 987 530.7656 958 c 0
 506.0464 903 444.2484 777 367.8436 622 c 0
 365.5964 619 364.4728 618 362.2256 618 c 0
 361.102 618 359.9784 620 358.8548 622 c 0
 280.2028 787 226.27 899 199.3036 956 c 0
 185.8204 985 174.5844 1006 156.6068 1006 c 2
 106 1006 l 2
 101 1006 96 992 96 978 c 0
 96 971 98 963 100 958 c 0
 127 892 213.9104 702 304.922 511 c 1
 306.0456 506 306.0456 502 306.0456 499 c 0
 306.0456 495 306.0456 494 304.922 492 c 0
 236.3824 349 158.854 193 93 46 c 0
 91 41 90 33 90 26 c 0
 90 13 93 0 99 0 c 2
EndSplineSet
EndChar

StartChar: y
Encoding: 121 121 102
Width: 644
VWidth: 0
Flags: HW
PickledData: "(dp1
S'com.typemytype.robofont.layerData'
p2
(dp3
S'b'
(dp4
S'name'
p5
S'y'
sS'lib'
p6
(dp7
sS'unicodes'
p8
(tsS'width'
p9
I644
sS'contours'
p10
(tsS'components'
p11
(tsS'anchors'
p12
(tsss."
LayerCount: 2
Fore
SplineSet
265 -269 m 0
 338 -261 358 -170 390 8 c 2
 557 943 l 2
 558 950 559 957 559 964 c 0
 559 990 553 1006 543 1006 c 2
 511 1006 l 2
 496 1006 487 990 481 947 c 2
 353 148 l 2
 352 141 351 137 349 137 c 0
 347 137 346 140 344 146 c 2
 163 950 l 1
 155 992 146 1006 130 1006 c 2
 96 1006 l 2
 87 1006 80 992 80 969 c 0
 80 962 81 954 82 947 c 2
 292 110 l 2
 302 72 311 33 311 2 c 0
 311 -75 291 -195 245 -195 c 0
 216 -195 177 -152 175 -152 c 0
 166.164340892 -152 150.242297924 -199.888425723 156 -221 c 0
 164 -247 219 -274 265 -269 c 0
EndSplineSet
EndChar

StartChar: z
Encoding: 122 122 103
Width: 590
VWidth: 0
Flags: HW
PickledData: "(dp1
S'com.typemytype.robofont.layerData'
p2
(dp3
S'b'
(dp4
S'name'
p5
S'z'
sS'lib'
p6
(dp7
sS'unicodes'
p8
(tsS'width'
p9
I590
sS'contours'
p10
((dp11
S'points'
p12
((dp13
S'segmentType'
p14
S'curve'
p15
sS'x'
F175
sS'smooth'
p16
I01
sS'y'
F936
s(dp17
S'y'
F936
sS'x'
F231
sg16
I00
s(dp18
S'y'
F936
sS'x'
F231
sg16
I00
s(dp19
g14
S'curve'
p20
sS'x'
F253
sg16
I01
sS'y'
F936
s(dp21
S'y'
F936
sS'x'
F271
sg16
I00
s(dp22
S'y'
F941
sS'x'
F280
sg16
I00
s(dp23
g14
S'curve'
p24
sS'x'
F280
sg16
I01
sS'y'
F957
s(dp25
g14
S'line'
p26
sS'x'
F280
sg16
I01
sS'y'
F992
s(dp27
S'y'
F1004
sS'x'
F280
sg16
I00
s(dp28
S'y'
F1006
sS'x'
F264
sg16
I00
s(dp29
g14
S'curve'
p30
sS'x'
F251
sg16
I01
sS'y'
F1006
s(dp31
S'y'
F1006
sS'x'
F228
sg16
I00
s(dp32
S'y'
F1006
sS'x'
F221
sg16
I00
s(dp33
g14
S'curve'
p34
sS'x'
F187
sg16
I01
sS'y'
F1006
s(dp35
S'y'
F1006
sS'x'
F134
sg16
I00
s(dp36
S'y'
F1030
sS'x'
F93
sg16
I00
s(dp37
g14
S'curve'
p38
sS'x'
F93
sg16
I01
sS'y'
F1240
s(dp39
g14
S'line'
p40
sS'x'
F93
sg16
I01
sS'y'
F1884
s(dp41
S'y'
F1899
sS'x'
F93
sg16
I00
s(dp42
S'y'
F1900
sS'x'
F95
sg16
I00
s(dp43
g14
S'curve'
p44
sS'x'
F103
sg16
I01
sS'y'
F1900
s(dp45
g14
S'line'
p46
sS'x'
F234
sg16
I01
sS'y'
F1900
s(dp47
S'y'
F1900
sS'x'
F250
sg16
I00
s(dp48
S'y'
F1901
sS'x'
F257
sg16
I00
s(dp49
g14
S'curve'
p50
sS'x'
F257
sg16
I01
sS'y'
F1932
s(dp51
g14
S'line'
p52
sS'x'
F257
sg16
I01
sS'y'
F1936
s(dp53
S'y'
F1968
sS'x'
F257
sg16
I00
s(dp54
S'y'
F1969
sS'x'
F250
sg16
I00
s(dp55
g14
S'curve'
p56
sS'x'
F234
sg16
I01
sS'y'
F1969
s(dp57
g14
S'line'
p58
sS'x'
F103
sg16
I01
sS'y'
F1969
s(dp59
S'y'
F1969
sS'x'
F95
sg16
I00
s(dp60
S'y'
F1976
sS'x'
F93
sg16
I00
s(dp61
g14
S'curve'
p62
sS'x'
F93
sg16
I01
sS'y'
F1996
s(dp63
g14
S'line'
p64
sS'x'
F93
sg16
I01
sS'y'
F2391
s(dp65
S'y'
F2434
sS'x'
F93
sg16
I00
s(dp66
S'y'
F2438
sS'x'
F85
sg16
I00
s(dp67
g14
S'curve'
p68
sS'x'
F70
sg16
I01
sS'y'
F2438
s(dp69
g14
S'line'
p70
sS'x'
F52
sg16
I01
sS'y'
F2438
s(dp71
S'y'
F2438
sS'x'
F38
sg16
I00
s(dp72
S'y'
F2433
sS'x'
F31
sg16
I00
s(dp73
g14
S'curve'
p74
sS'x'
F30
sg16
I01
sS'y'
F2391
s(dp75
g14
S'line'
p76
sS'x'
F16
sg16
I00
sS'y'
F1996
s(dp77
S'y'
F1976
sS'x'
F16
sg16
I00
s(dp78
S'y'
F1969
sS'x'
F12
sg16
I00
s(dp79
g14
S'curve'
p80
sS'x'
F6
sg16
I01
sS'y'
F1969
s(dp81
g14
S'line'
p82
sS'x'
F-62
sg16
I01
sS'y'
F1969
s(dp83
S'y'
F1969
sS'x'
F-77
sg16
I00
s(dp84
S'y'
F1968
sS'x'
F-85
sg16
I00
s(dp85
g14
S'curve'
p86
sS'x'
F-85
sg16
I01
sS'y'
F1936
s(dp87
g14
S'line'
p88
sS'x'
F-85
sg16
I01
sS'y'
F1932
s(dp89
S'y'
F1901
sS'x'
F-85
sg16
I00
s(dp90
S'y'
F1900
sS'x'
F-77
sg16
I00
s(dp91
g14
S'curve'
p92
sS'x'
F-62
sg16
I01
sS'y'
F1900
s(dp93
g14
S'line'
p94
sS'x'
F6
sg16
I01
sS'y'
F1900
s(dp95
S'y'
F1900
sS'x'
F12
sg16
I00
s(dp96
S'y'
F1899
sS'x'
F16
sg16
I00
s(dp97
g14
S'curve'
p98
sS'x'
F16
sg16
I01
sS'y'
F1884
s(dp99
g14
S'line'
p100
sS'x'
F16
sg16
I01
sS'y'
F1236
s(dp101
S'y'
F1009
sS'x'
F16
sg16
I00
s(dp102
S'y'
F936
sS'x'
F70
sg16
I00
stp103
stp104
sS'components'
p105
(tsS'anchors'
p106
(tsss."
LayerCount: 2
Fore
SplineSet
116 0 m 2
 485 0 l 2
 491 0 498 3 498 17 c 2
 498 53 l 2
 498 68 491 70 485 70 c 2
 185 70 l 1
 474 905 l 2
 479 919 484 943 484 966 c 2
 484 987 l 2
 484 1003 469 1006 461 1006 c 2
 108 1006 l 2
 100 1006 95 1000 95 987 c 2
 95 959 l 2
 95 939 100 936 108 936 c 2
 404 936 l 1
 114 111 l 2
 102 76 94 62 94 39 c 2
 94 15 l 2
 94 3 109 0 116 0 c 2
EndSplineSet
EndChar

StartChar: zero
Encoding: 48 48 104
Width: 788
VWidth: 0
Flags: HW
PickledData: "(dp1
S'com.typemytype.robofont.layerData'
p2
(dp3
S'b'
(dp4
S'name'
p5
S'zero'
p6
sS'lib'
p7
(dp8
sS'unicodes'
p9
(tsS'width'
p10
I739
sS'contours'
p11
((dp12
S'points'
p13
((dp14
S'segmentType'
p15
S'curve'
p16
sS'x'
F368
sS'smooth'
p17
I01
sS'y'
F-21
s(dp18
S'y'
F-21
sS'x'
F592
sg17
I00
s(dp19
S'y'
F85
sS'x'
F709
sg17
I00
s(dp20
g15
S'curve'
p21
sS'x'
F709
sg17
I01
sS'y'
F724
s(dp22
S'y'
F1316
sS'x'
F709
sg17
I00
s(dp23
S'y'
F1455
sS'x'
F592
sg17
I00
s(dp24
g15
S'curve'
p25
sS'x'
F368
sg17
I01
sS'y'
F1455
s(dp26
S'y'
F1455
sS'x'
F147
sg17
I00
s(dp27
S'y'
F1306
sS'x'
F28
sg17
I00
s(dp28
g15
S'curve'
p29
sS'x'
F28
sg17
I01
sS'y'
F724
s(dp30
S'y'
F95
sS'x'
F28
sg17
I00
s(dp31
S'y'
F-21
sS'x'
F147
sg17
I00
stp32
s(dp33
g13
((dp34
g15
S'curve'
p35
sS'x'
F368
sg17
I01
sS'y'
F43
s(dp36
S'y'
F43
sS'x'
F204
sg17
I00
s(dp37
S'y'
F128
sS'x'
F107
sg17
I00
s(dp38
g15
S'curve'
p39
sS'x'
F107
sg17
I01
sS'y'
F724
s(dp40
S'y'
F1252
sS'x'
F107
sg17
I00
s(dp41
S'y'
F1392
sS'x'
F200
sg17
I00
s(dp42
g15
S'curve'
p43
sS'x'
F368
sg17
I01
sS'y'
F1392
s(dp44
S'y'
F1392
sS'x'
F538
sg17
I00
s(dp45
S'y'
F1273
sS'x'
F630
sg17
I00
s(dp46
g15
S'curve'
p47
sS'x'
F630
sg17
I01
sS'y'
F724
s(dp48
S'y'
F114
sS'x'
F630
sg17
I00
s(dp49
S'y'
F43
sS'x'
F534
sg17
I00
stp50
stp51
sS'components'
p52
(tsS'anchors'
p53
(tsss."
LayerCount: 2
Fore
SplineSet
392.9672 -21 m 0
 570.496 -21 697.8108 153 697.8108 732 c 0
 697.8108 1301 570.496 1455 392.9672 1455 c 0
 217.6856 1455 89 1295 89 732 c 0
 89 153 217.6856 -21 392.9672 -21 c 0
394.0908 43 m 0
 245.7756 43 166 218 166 732 c 0
 166 1222 241.2812 1392 394.0908 1392 c 0
 548.024 1392 618.8108 1224 618.8108 732 c 0
 618.8108 213 543.5296 43 394.0908 43 c 0
EndSplineSet
EndChar
